<?xml version="1.0" encoding="utf-8" standalone="no"?>
<!DOCTYPE svg PUBLIC "-//W3C//DTD SVG 1.1//EN"
  "http://www.w3.org/Graphics/SVG/1.1/DTD/svg11.dtd">
<svg xmlns:xlink="http://www.w3.org/1999/xlink" width="792pt" height="432pt" viewBox="0 0 792 432" xmlns="http://www.w3.org/2000/svg" version="1.1">
 <metadata>
  <rdf:RDF xmlns:dc="http://purl.org/dc/elements/1.1/" xmlns:cc="http://creativecommons.org/ns#" xmlns:rdf="http://www.w3.org/1999/02/22-rdf-syntax-ns#">
   <cc:Work>
    <dc:type rdf:resource="http://purl.org/dc/dcmitype/StillImage"/>
    <dc:date>2026-04-26T16:01:22.897306</dc:date>
    <dc:format>image/svg+xml</dc:format>
    <dc:creator>
     <cc:Agent>
      <dc:title>Matplotlib v3.10.9, https://matplotlib.org/</dc:title>
     </cc:Agent>
    </dc:creator>
   </cc:Work>
  </rdf:RDF>
 </metadata>
 <defs>
  <style type="text/css">*{stroke-linejoin: round; stroke-linecap: butt}</style>
 </defs>
 <g id="figure_1">
  <g id="patch_1">
   <path d="M 0 432 
L 792 432 
L 792 0 
L 0 0 
z
" style="fill: #ffffff"/>
  </g>
  <g id="axes_1">
   <g id="patch_2">
    <path d="M 47.72 390.04 
L 781.2 390.04 
L 781.2 26.88 
L 47.72 26.88 
z
" style="fill: #ffffff"/>
   </g>
   <g id="matplotlib.axis_1">
    <g id="xtick_1">
     <g id="line2d_1">
      <defs>
       <path id="m85d131ca5a" d="M 0 0 
L 0 3.5 
" style="stroke: #000000; stroke-width: 0.8"/>
      </defs>
      <g>
       <use xlink:href="#m85d131ca5a" x="81.06" y="390.04" style="stroke: #000000; stroke-width: 0.8"/>
      </g>
     </g>
     <g id="text_1">
      <!-- 0 -->
      <g transform="translate(77.87875 404.638438) scale(0.1 -0.1)">
       <defs>
        <path id="DejaVuSans-30" d="M 2034 4250 
Q 1547 4250 1301 3770 
Q 1056 3291 1056 2328 
Q 1056 1369 1301 889 
Q 1547 409 2034 409 
Q 2525 409 2770 889 
Q 3016 1369 3016 2328 
Q 3016 3291 2770 3770 
Q 2525 4250 2034 4250 
z
M 2034 4750 
Q 2819 4750 3233 4129 
Q 3647 3509 3647 2328 
Q 3647 1150 3233 529 
Q 2819 -91 2034 -91 
Q 1250 -91 836 529 
Q 422 1150 422 2328 
Q 422 3509 836 4129 
Q 1250 4750 2034 4750 
z
" transform="scale(0.015625)"/>
       </defs>
       <use xlink:href="#DejaVuSans-30"/>
      </g>
     </g>
    </g>
    <g id="xtick_2">
     <g id="line2d_2">
      <g>
       <use xlink:href="#m85d131ca5a" x="168.808388" y="390.04" style="stroke: #000000; stroke-width: 0.8"/>
      </g>
     </g>
     <g id="text_2">
      <!-- 1000 -->
      <g transform="translate(156.083388 404.638438) scale(0.1 -0.1)">
       <defs>
        <path id="DejaVuSans-31" d="M 794 531 
L 1825 531 
L 1825 4091 
L 703 3866 
L 703 4441 
L 1819 4666 
L 2450 4666 
L 2450 531 
L 3481 531 
L 3481 0 
L 794 0 
L 794 531 
z
" transform="scale(0.015625)"/>
       </defs>
       <use xlink:href="#DejaVuSans-31"/>
       <use xlink:href="#DejaVuSans-30" transform="translate(63.623047 0)"/>
       <use xlink:href="#DejaVuSans-30" transform="translate(127.246094 0)"/>
       <use xlink:href="#DejaVuSans-30" transform="translate(190.869141 0)"/>
      </g>
     </g>
    </g>
    <g id="xtick_3">
     <g id="line2d_3">
      <g>
       <use xlink:href="#m85d131ca5a" x="256.556776" y="390.04" style="stroke: #000000; stroke-width: 0.8"/>
      </g>
     </g>
     <g id="text_3">
      <!-- 2000 -->
      <g transform="translate(243.831776 404.638438) scale(0.1 -0.1)">
       <defs>
        <path id="DejaVuSans-32" d="M 1228 531 
L 3431 531 
L 3431 0 
L 469 0 
L 469 531 
Q 828 903 1448 1529 
Q 2069 2156 2228 2338 
Q 2531 2678 2651 2914 
Q 2772 3150 2772 3378 
Q 2772 3750 2511 3984 
Q 2250 4219 1831 4219 
Q 1534 4219 1204 4116 
Q 875 4013 500 3803 
L 500 4441 
Q 881 4594 1212 4672 
Q 1544 4750 1819 4750 
Q 2544 4750 2975 4387 
Q 3406 4025 3406 3419 
Q 3406 3131 3298 2873 
Q 3191 2616 2906 2266 
Q 2828 2175 2409 1742 
Q 1991 1309 1228 531 
z
" transform="scale(0.015625)"/>
       </defs>
       <use xlink:href="#DejaVuSans-32"/>
       <use xlink:href="#DejaVuSans-30" transform="translate(63.623047 0)"/>
       <use xlink:href="#DejaVuSans-30" transform="translate(127.246094 0)"/>
       <use xlink:href="#DejaVuSans-30" transform="translate(190.869141 0)"/>
      </g>
     </g>
    </g>
    <g id="xtick_4">
     <g id="line2d_4">
      <g>
       <use xlink:href="#m85d131ca5a" x="344.305164" y="390.04" style="stroke: #000000; stroke-width: 0.8"/>
      </g>
     </g>
     <g id="text_4">
      <!-- 3000 -->
      <g transform="translate(331.580164 404.638438) scale(0.1 -0.1)">
       <defs>
        <path id="DejaVuSans-33" d="M 2597 2516 
Q 3050 2419 3304 2112 
Q 3559 1806 3559 1356 
Q 3559 666 3084 287 
Q 2609 -91 1734 -91 
Q 1441 -91 1130 -33 
Q 819 25 488 141 
L 488 750 
Q 750 597 1062 519 
Q 1375 441 1716 441 
Q 2309 441 2620 675 
Q 2931 909 2931 1356 
Q 2931 1769 2642 2001 
Q 2353 2234 1838 2234 
L 1294 2234 
L 1294 2753 
L 1863 2753 
Q 2328 2753 2575 2939 
Q 2822 3125 2822 3475 
Q 2822 3834 2567 4026 
Q 2313 4219 1838 4219 
Q 1578 4219 1281 4162 
Q 984 4106 628 3988 
L 628 4550 
Q 988 4650 1302 4700 
Q 1616 4750 1894 4750 
Q 2613 4750 3031 4423 
Q 3450 4097 3450 3541 
Q 3450 3153 3228 2886 
Q 3006 2619 2597 2516 
z
" transform="scale(0.015625)"/>
       </defs>
       <use xlink:href="#DejaVuSans-33"/>
       <use xlink:href="#DejaVuSans-30" transform="translate(63.623047 0)"/>
       <use xlink:href="#DejaVuSans-30" transform="translate(127.246094 0)"/>
       <use xlink:href="#DejaVuSans-30" transform="translate(190.869141 0)"/>
      </g>
     </g>
    </g>
    <g id="xtick_5">
     <g id="line2d_5">
      <g>
       <use xlink:href="#m85d131ca5a" x="432.053552" y="390.04" style="stroke: #000000; stroke-width: 0.8"/>
      </g>
     </g>
     <g id="text_5">
      <!-- 4000 -->
      <g transform="translate(419.328552 404.638438) scale(0.1 -0.1)">
       <defs>
        <path id="DejaVuSans-34" d="M 2419 4116 
L 825 1625 
L 2419 1625 
L 2419 4116 
z
M 2253 4666 
L 3047 4666 
L 3047 1625 
L 3713 1625 
L 3713 1100 
L 3047 1100 
L 3047 0 
L 2419 0 
L 2419 1100 
L 313 1100 
L 313 1709 
L 2253 4666 
z
" transform="scale(0.015625)"/>
       </defs>
       <use xlink:href="#DejaVuSans-34"/>
       <use xlink:href="#DejaVuSans-30" transform="translate(63.623047 0)"/>
       <use xlink:href="#DejaVuSans-30" transform="translate(127.246094 0)"/>
       <use xlink:href="#DejaVuSans-30" transform="translate(190.869141 0)"/>
      </g>
     </g>
    </g>
    <g id="xtick_6">
     <g id="line2d_6">
      <g>
       <use xlink:href="#m85d131ca5a" x="519.80194" y="390.04" style="stroke: #000000; stroke-width: 0.8"/>
      </g>
     </g>
     <g id="text_6">
      <!-- 5000 -->
      <g transform="translate(507.07694 404.638438) scale(0.1 -0.1)">
       <defs>
        <path id="DejaVuSans-35" d="M 691 4666 
L 3169 4666 
L 3169 4134 
L 1269 4134 
L 1269 2991 
Q 1406 3038 1543 3061 
Q 1681 3084 1819 3084 
Q 2600 3084 3056 2656 
Q 3513 2228 3513 1497 
Q 3513 744 3044 326 
Q 2575 -91 1722 -91 
Q 1428 -91 1123 -41 
Q 819 9 494 109 
L 494 744 
Q 775 591 1075 516 
Q 1375 441 1709 441 
Q 2250 441 2565 725 
Q 2881 1009 2881 1497 
Q 2881 1984 2565 2268 
Q 2250 2553 1709 2553 
Q 1456 2553 1204 2497 
Q 953 2441 691 2322 
L 691 4666 
z
" transform="scale(0.015625)"/>
       </defs>
       <use xlink:href="#DejaVuSans-35"/>
       <use xlink:href="#DejaVuSans-30" transform="translate(63.623047 0)"/>
       <use xlink:href="#DejaVuSans-30" transform="translate(127.246094 0)"/>
       <use xlink:href="#DejaVuSans-30" transform="translate(190.869141 0)"/>
      </g>
     </g>
    </g>
    <g id="xtick_7">
     <g id="line2d_7">
      <g>
       <use xlink:href="#m85d131ca5a" x="607.550328" y="390.04" style="stroke: #000000; stroke-width: 0.8"/>
      </g>
     </g>
     <g id="text_7">
      <!-- 6000 -->
      <g transform="translate(594.825328 404.638438) scale(0.1 -0.1)">
       <defs>
        <path id="DejaVuSans-36" d="M 2113 2584 
Q 1688 2584 1439 2293 
Q 1191 2003 1191 1497 
Q 1191 994 1439 701 
Q 1688 409 2113 409 
Q 2538 409 2786 701 
Q 3034 994 3034 1497 
Q 3034 2003 2786 2293 
Q 2538 2584 2113 2584 
z
M 3366 4563 
L 3366 3988 
Q 3128 4100 2886 4159 
Q 2644 4219 2406 4219 
Q 1781 4219 1451 3797 
Q 1122 3375 1075 2522 
Q 1259 2794 1537 2939 
Q 1816 3084 2150 3084 
Q 2853 3084 3261 2657 
Q 3669 2231 3669 1497 
Q 3669 778 3244 343 
Q 2819 -91 2113 -91 
Q 1303 -91 875 529 
Q 447 1150 447 2328 
Q 447 3434 972 4092 
Q 1497 4750 2381 4750 
Q 2619 4750 2861 4703 
Q 3103 4656 3366 4563 
z
" transform="scale(0.015625)"/>
       </defs>
       <use xlink:href="#DejaVuSans-36"/>
       <use xlink:href="#DejaVuSans-30" transform="translate(63.623047 0)"/>
       <use xlink:href="#DejaVuSans-30" transform="translate(127.246094 0)"/>
       <use xlink:href="#DejaVuSans-30" transform="translate(190.869141 0)"/>
      </g>
     </g>
    </g>
    <g id="xtick_8">
     <g id="line2d_8">
      <g>
       <use xlink:href="#m85d131ca5a" x="695.298716" y="390.04" style="stroke: #000000; stroke-width: 0.8"/>
      </g>
     </g>
     <g id="text_8">
      <!-- 7000 -->
      <g transform="translate(682.573716 404.638438) scale(0.1 -0.1)">
       <defs>
        <path id="DejaVuSans-37" d="M 525 4666 
L 3525 4666 
L 3525 4397 
L 1831 0 
L 1172 0 
L 2766 4134 
L 525 4134 
L 525 4666 
z
" transform="scale(0.015625)"/>
       </defs>
       <use xlink:href="#DejaVuSans-37"/>
       <use xlink:href="#DejaVuSans-30" transform="translate(63.623047 0)"/>
       <use xlink:href="#DejaVuSans-30" transform="translate(127.246094 0)"/>
       <use xlink:href="#DejaVuSans-30" transform="translate(190.869141 0)"/>
      </g>
     </g>
    </g>
    <g id="text_9">
     <!-- Training episode -->
     <g transform="translate(373.590469 418.316562) scale(0.1 -0.1)">
      <defs>
       <path id="DejaVuSans-54" d="M -19 4666 
L 3928 4666 
L 3928 4134 
L 2272 4134 
L 2272 0 
L 1638 0 
L 1638 4134 
L -19 4134 
L -19 4666 
z
" transform="scale(0.015625)"/>
       <path id="DejaVuSans-72" d="M 2631 2963 
Q 2534 3019 2420 3045 
Q 2306 3072 2169 3072 
Q 1681 3072 1420 2755 
Q 1159 2438 1159 1844 
L 1159 0 
L 581 0 
L 581 3500 
L 1159 3500 
L 1159 2956 
Q 1341 3275 1631 3429 
Q 1922 3584 2338 3584 
Q 2397 3584 2469 3576 
Q 2541 3569 2628 3553 
L 2631 2963 
z
" transform="scale(0.015625)"/>
       <path id="DejaVuSans-61" d="M 2194 1759 
Q 1497 1759 1228 1600 
Q 959 1441 959 1056 
Q 959 750 1161 570 
Q 1363 391 1709 391 
Q 2188 391 2477 730 
Q 2766 1069 2766 1631 
L 2766 1759 
L 2194 1759 
z
M 3341 1997 
L 3341 0 
L 2766 0 
L 2766 531 
Q 2569 213 2275 61 
Q 1981 -91 1556 -91 
Q 1019 -91 701 211 
Q 384 513 384 1019 
Q 384 1609 779 1909 
Q 1175 2209 1959 2209 
L 2766 2209 
L 2766 2266 
Q 2766 2663 2505 2880 
Q 2244 3097 1772 3097 
Q 1472 3097 1187 3025 
Q 903 2953 641 2809 
L 641 3341 
Q 956 3463 1253 3523 
Q 1550 3584 1831 3584 
Q 2591 3584 2966 3190 
Q 3341 2797 3341 1997 
z
" transform="scale(0.015625)"/>
       <path id="DejaVuSans-69" d="M 603 3500 
L 1178 3500 
L 1178 0 
L 603 0 
L 603 3500 
z
M 603 4863 
L 1178 4863 
L 1178 4134 
L 603 4134 
L 603 4863 
z
" transform="scale(0.015625)"/>
       <path id="DejaVuSans-6e" d="M 3513 2113 
L 3513 0 
L 2938 0 
L 2938 2094 
Q 2938 2591 2744 2837 
Q 2550 3084 2163 3084 
Q 1697 3084 1428 2787 
Q 1159 2491 1159 1978 
L 1159 0 
L 581 0 
L 581 3500 
L 1159 3500 
L 1159 2956 
Q 1366 3272 1645 3428 
Q 1925 3584 2291 3584 
Q 2894 3584 3203 3211 
Q 3513 2838 3513 2113 
z
" transform="scale(0.015625)"/>
       <path id="DejaVuSans-67" d="M 2906 1791 
Q 2906 2416 2648 2759 
Q 2391 3103 1925 3103 
Q 1463 3103 1205 2759 
Q 947 2416 947 1791 
Q 947 1169 1205 825 
Q 1463 481 1925 481 
Q 2391 481 2648 825 
Q 2906 1169 2906 1791 
z
M 3481 434 
Q 3481 -459 3084 -895 
Q 2688 -1331 1869 -1331 
Q 1566 -1331 1297 -1286 
Q 1028 -1241 775 -1147 
L 775 -588 
Q 1028 -725 1275 -790 
Q 1522 -856 1778 -856 
Q 2344 -856 2625 -561 
Q 2906 -266 2906 331 
L 2906 616 
Q 2728 306 2450 153 
Q 2172 0 1784 0 
Q 1141 0 747 490 
Q 353 981 353 1791 
Q 353 2603 747 3093 
Q 1141 3584 1784 3584 
Q 2172 3584 2450 3431 
Q 2728 3278 2906 2969 
L 2906 3500 
L 3481 3500 
L 3481 434 
z
" transform="scale(0.015625)"/>
       <path id="DejaVuSans-20" transform="scale(0.015625)"/>
       <path id="DejaVuSans-65" d="M 3597 1894 
L 3597 1613 
L 953 1613 
Q 991 1019 1311 708 
Q 1631 397 2203 397 
Q 2534 397 2845 478 
Q 3156 559 3463 722 
L 3463 178 
Q 3153 47 2828 -22 
Q 2503 -91 2169 -91 
Q 1331 -91 842 396 
Q 353 884 353 1716 
Q 353 2575 817 3079 
Q 1281 3584 2069 3584 
Q 2775 3584 3186 3129 
Q 3597 2675 3597 1894 
z
M 3022 2063 
Q 3016 2534 2758 2815 
Q 2500 3097 2075 3097 
Q 1594 3097 1305 2825 
Q 1016 2553 972 2059 
L 3022 2063 
z
" transform="scale(0.015625)"/>
       <path id="DejaVuSans-70" d="M 1159 525 
L 1159 -1331 
L 581 -1331 
L 581 3500 
L 1159 3500 
L 1159 2969 
Q 1341 3281 1617 3432 
Q 1894 3584 2278 3584 
Q 2916 3584 3314 3078 
Q 3713 2572 3713 1747 
Q 3713 922 3314 415 
Q 2916 -91 2278 -91 
Q 1894 -91 1617 61 
Q 1341 213 1159 525 
z
M 3116 1747 
Q 3116 2381 2855 2742 
Q 2594 3103 2138 3103 
Q 1681 3103 1420 2742 
Q 1159 2381 1159 1747 
Q 1159 1113 1420 752 
Q 1681 391 2138 391 
Q 2594 391 2855 752 
Q 3116 1113 3116 1747 
z
" transform="scale(0.015625)"/>
       <path id="DejaVuSans-73" d="M 2834 3397 
L 2834 2853 
Q 2591 2978 2328 3040 
Q 2066 3103 1784 3103 
Q 1356 3103 1142 2972 
Q 928 2841 928 2578 
Q 928 2378 1081 2264 
Q 1234 2150 1697 2047 
L 1894 2003 
Q 2506 1872 2764 1633 
Q 3022 1394 3022 966 
Q 3022 478 2636 193 
Q 2250 -91 1575 -91 
Q 1294 -91 989 -36 
Q 684 19 347 128 
L 347 722 
Q 666 556 975 473 
Q 1284 391 1588 391 
Q 1994 391 2212 530 
Q 2431 669 2431 922 
Q 2431 1156 2273 1281 
Q 2116 1406 1581 1522 
L 1381 1569 
Q 847 1681 609 1914 
Q 372 2147 372 2553 
Q 372 3047 722 3315 
Q 1072 3584 1716 3584 
Q 2034 3584 2315 3537 
Q 2597 3491 2834 3397 
z
" transform="scale(0.015625)"/>
       <path id="DejaVuSans-6f" d="M 1959 3097 
Q 1497 3097 1228 2736 
Q 959 2375 959 1747 
Q 959 1119 1226 758 
Q 1494 397 1959 397 
Q 2419 397 2687 759 
Q 2956 1122 2956 1747 
Q 2956 2369 2687 2733 
Q 2419 3097 1959 3097 
z
M 1959 3584 
Q 2709 3584 3137 3096 
Q 3566 2609 3566 1747 
Q 3566 888 3137 398 
Q 2709 -91 1959 -91 
Q 1206 -91 779 398 
Q 353 888 353 1747 
Q 353 2609 779 3096 
Q 1206 3584 1959 3584 
z
" transform="scale(0.015625)"/>
       <path id="DejaVuSans-64" d="M 2906 2969 
L 2906 4863 
L 3481 4863 
L 3481 0 
L 2906 0 
L 2906 525 
Q 2725 213 2448 61 
Q 2172 -91 1784 -91 
Q 1150 -91 751 415 
Q 353 922 353 1747 
Q 353 2572 751 3078 
Q 1150 3584 1784 3584 
Q 2172 3584 2448 3432 
Q 2725 3281 2906 2969 
z
M 947 1747 
Q 947 1113 1208 752 
Q 1469 391 1925 391 
Q 2381 391 2643 752 
Q 2906 1113 2906 1747 
Q 2906 2381 2643 2742 
Q 2381 3103 1925 3103 
Q 1469 3103 1208 2742 
Q 947 2381 947 1747 
z
" transform="scale(0.015625)"/>
      </defs>
      <use xlink:href="#DejaVuSans-54"/>
      <use xlink:href="#DejaVuSans-72" transform="translate(46.333984 0)"/>
      <use xlink:href="#DejaVuSans-61" transform="translate(87.447266 0)"/>
      <use xlink:href="#DejaVuSans-69" transform="translate(148.726562 0)"/>
      <use xlink:href="#DejaVuSans-6e" transform="translate(176.509766 0)"/>
      <use xlink:href="#DejaVuSans-69" transform="translate(239.888672 0)"/>
      <use xlink:href="#DejaVuSans-6e" transform="translate(267.671875 0)"/>
      <use xlink:href="#DejaVuSans-67" transform="translate(331.050781 0)"/>
      <use xlink:href="#DejaVuSans-20" transform="translate(394.527344 0)"/>
      <use xlink:href="#DejaVuSans-65" transform="translate(426.314453 0)"/>
      <use xlink:href="#DejaVuSans-70" transform="translate(487.837891 0)"/>
      <use xlink:href="#DejaVuSans-69" transform="translate(551.314453 0)"/>
      <use xlink:href="#DejaVuSans-73" transform="translate(579.097656 0)"/>
      <use xlink:href="#DejaVuSans-6f" transform="translate(631.197266 0)"/>
      <use xlink:href="#DejaVuSans-64" transform="translate(692.378906 0)"/>
      <use xlink:href="#DejaVuSans-65" transform="translate(755.855469 0)"/>
     </g>
    </g>
   </g>
   <g id="matplotlib.axis_2">
    <g id="ytick_1">
     <g id="line2d_9">
      <defs>
       <path id="m472606140e" d="M 0 0 
L -3.5 0 
" style="stroke: #000000; stroke-width: 0.8"/>
      </defs>
      <g>
       <use xlink:href="#m472606140e" x="47.72" y="373.532727" style="stroke: #000000; stroke-width: 0.8"/>
      </g>
     </g>
     <g id="text_10">
      <!-- 0.0 -->
      <g transform="translate(24.816875 377.331946) scale(0.1 -0.1)">
       <defs>
        <path id="DejaVuSans-2e" d="M 684 794 
L 1344 794 
L 1344 0 
L 684 0 
L 684 794 
z
" transform="scale(0.015625)"/>
       </defs>
       <use xlink:href="#DejaVuSans-30"/>
       <use xlink:href="#DejaVuSans-2e" transform="translate(63.623047 0)"/>
       <use xlink:href="#DejaVuSans-30" transform="translate(95.410156 0)"/>
      </g>
     </g>
    </g>
    <g id="ytick_2">
     <g id="line2d_10">
      <g>
       <use xlink:href="#m472606140e" x="47.72" y="331.354982" style="stroke: #000000; stroke-width: 0.8"/>
      </g>
     </g>
     <g id="text_11">
      <!-- 0.1 -->
      <g transform="translate(24.816875 335.154201) scale(0.1 -0.1)">
       <use xlink:href="#DejaVuSans-30"/>
       <use xlink:href="#DejaVuSans-2e" transform="translate(63.623047 0)"/>
       <use xlink:href="#DejaVuSans-31" transform="translate(95.410156 0)"/>
      </g>
     </g>
    </g>
    <g id="ytick_3">
     <g id="line2d_11">
      <g>
       <use xlink:href="#m472606140e" x="47.72" y="289.177237" style="stroke: #000000; stroke-width: 0.8"/>
      </g>
     </g>
     <g id="text_12">
      <!-- 0.2 -->
      <g transform="translate(24.816875 292.976456) scale(0.1 -0.1)">
       <use xlink:href="#DejaVuSans-30"/>
       <use xlink:href="#DejaVuSans-2e" transform="translate(63.623047 0)"/>
       <use xlink:href="#DejaVuSans-32" transform="translate(95.410156 0)"/>
      </g>
     </g>
    </g>
    <g id="ytick_4">
     <g id="line2d_12">
      <g>
       <use xlink:href="#m472606140e" x="47.72" y="246.999493" style="stroke: #000000; stroke-width: 0.8"/>
      </g>
     </g>
     <g id="text_13">
      <!-- 0.3 -->
      <g transform="translate(24.816875 250.798711) scale(0.1 -0.1)">
       <use xlink:href="#DejaVuSans-30"/>
       <use xlink:href="#DejaVuSans-2e" transform="translate(63.623047 0)"/>
       <use xlink:href="#DejaVuSans-33" transform="translate(95.410156 0)"/>
      </g>
     </g>
    </g>
    <g id="ytick_5">
     <g id="line2d_13">
      <g>
       <use xlink:href="#m472606140e" x="47.72" y="204.821748" style="stroke: #000000; stroke-width: 0.8"/>
      </g>
     </g>
     <g id="text_14">
      <!-- 0.4 -->
      <g transform="translate(24.816875 208.620966) scale(0.1 -0.1)">
       <use xlink:href="#DejaVuSans-30"/>
       <use xlink:href="#DejaVuSans-2e" transform="translate(63.623047 0)"/>
       <use xlink:href="#DejaVuSans-34" transform="translate(95.410156 0)"/>
      </g>
     </g>
    </g>
    <g id="ytick_6">
     <g id="line2d_14">
      <g>
       <use xlink:href="#m472606140e" x="47.72" y="162.644003" style="stroke: #000000; stroke-width: 0.8"/>
      </g>
     </g>
     <g id="text_15">
      <!-- 0.5 -->
      <g transform="translate(24.816875 166.443222) scale(0.1 -0.1)">
       <use xlink:href="#DejaVuSans-30"/>
       <use xlink:href="#DejaVuSans-2e" transform="translate(63.623047 0)"/>
       <use xlink:href="#DejaVuSans-35" transform="translate(95.410156 0)"/>
      </g>
     </g>
    </g>
    <g id="ytick_7">
     <g id="line2d_15">
      <g>
       <use xlink:href="#m472606140e" x="47.72" y="120.466258" style="stroke: #000000; stroke-width: 0.8"/>
      </g>
     </g>
     <g id="text_16">
      <!-- 0.6 -->
      <g transform="translate(24.816875 124.265477) scale(0.1 -0.1)">
       <use xlink:href="#DejaVuSans-30"/>
       <use xlink:href="#DejaVuSans-2e" transform="translate(63.623047 0)"/>
       <use xlink:href="#DejaVuSans-36" transform="translate(95.410156 0)"/>
      </g>
     </g>
    </g>
    <g id="ytick_8">
     <g id="line2d_16">
      <g>
       <use xlink:href="#m472606140e" x="47.72" y="78.288513" style="stroke: #000000; stroke-width: 0.8"/>
      </g>
     </g>
     <g id="text_17">
      <!-- 0.7 -->
      <g transform="translate(24.816875 82.087732) scale(0.1 -0.1)">
       <use xlink:href="#DejaVuSans-30"/>
       <use xlink:href="#DejaVuSans-2e" transform="translate(63.623047 0)"/>
       <use xlink:href="#DejaVuSans-37" transform="translate(95.410156 0)"/>
      </g>
     </g>
    </g>
    <g id="ytick_9">
     <g id="line2d_17">
      <g>
       <use xlink:href="#m472606140e" x="47.72" y="36.110768" style="stroke: #000000; stroke-width: 0.8"/>
      </g>
     </g>
     <g id="text_18">
      <!-- 0.8 -->
      <g transform="translate(24.816875 39.909987) scale(0.1 -0.1)">
       <defs>
        <path id="DejaVuSans-38" d="M 2034 2216 
Q 1584 2216 1326 1975 
Q 1069 1734 1069 1313 
Q 1069 891 1326 650 
Q 1584 409 2034 409 
Q 2484 409 2743 651 
Q 3003 894 3003 1313 
Q 3003 1734 2745 1975 
Q 2488 2216 2034 2216 
z
M 1403 2484 
Q 997 2584 770 2862 
Q 544 3141 544 3541 
Q 544 4100 942 4425 
Q 1341 4750 2034 4750 
Q 2731 4750 3128 4425 
Q 3525 4100 3525 3541 
Q 3525 3141 3298 2862 
Q 3072 2584 2669 2484 
Q 3125 2378 3379 2068 
Q 3634 1759 3634 1313 
Q 3634 634 3220 271 
Q 2806 -91 2034 -91 
Q 1263 -91 848 271 
Q 434 634 434 1313 
Q 434 1759 690 2068 
Q 947 2378 1403 2484 
z
M 1172 3481 
Q 1172 3119 1398 2916 
Q 1625 2713 2034 2713 
Q 2441 2713 2670 2916 
Q 2900 3119 2900 3481 
Q 2900 3844 2670 4047 
Q 2441 4250 2034 4250 
Q 1625 4250 1398 4047 
Q 1172 3844 1172 3481 
z
" transform="scale(0.015625)"/>
       </defs>
       <use xlink:href="#DejaVuSans-30"/>
       <use xlink:href="#DejaVuSans-2e" transform="translate(63.623047 0)"/>
       <use xlink:href="#DejaVuSans-38" transform="translate(95.410156 0)"/>
      </g>
     </g>
    </g>
    <g id="text_19">
     <!-- Productivity EMA -->
     <g transform="translate(18.737188 250.581875) rotate(-90) scale(0.1 -0.1)">
      <defs>
       <path id="DejaVuSans-50" d="M 1259 4147 
L 1259 2394 
L 2053 2394 
Q 2494 2394 2734 2622 
Q 2975 2850 2975 3272 
Q 2975 3691 2734 3919 
Q 2494 4147 2053 4147 
L 1259 4147 
z
M 628 4666 
L 2053 4666 
Q 2838 4666 3239 4311 
Q 3641 3956 3641 3272 
Q 3641 2581 3239 2228 
Q 2838 1875 2053 1875 
L 1259 1875 
L 1259 0 
L 628 0 
L 628 4666 
z
" transform="scale(0.015625)"/>
       <path id="DejaVuSans-75" d="M 544 1381 
L 544 3500 
L 1119 3500 
L 1119 1403 
Q 1119 906 1312 657 
Q 1506 409 1894 409 
Q 2359 409 2629 706 
Q 2900 1003 2900 1516 
L 2900 3500 
L 3475 3500 
L 3475 0 
L 2900 0 
L 2900 538 
Q 2691 219 2414 64 
Q 2138 -91 1772 -91 
Q 1169 -91 856 284 
Q 544 659 544 1381 
z
M 1991 3584 
L 1991 3584 
z
" transform="scale(0.015625)"/>
       <path id="DejaVuSans-63" d="M 3122 3366 
L 3122 2828 
Q 2878 2963 2633 3030 
Q 2388 3097 2138 3097 
Q 1578 3097 1268 2742 
Q 959 2388 959 1747 
Q 959 1106 1268 751 
Q 1578 397 2138 397 
Q 2388 397 2633 464 
Q 2878 531 3122 666 
L 3122 134 
Q 2881 22 2623 -34 
Q 2366 -91 2075 -91 
Q 1284 -91 818 406 
Q 353 903 353 1747 
Q 353 2603 823 3093 
Q 1294 3584 2113 3584 
Q 2378 3584 2631 3529 
Q 2884 3475 3122 3366 
z
" transform="scale(0.015625)"/>
       <path id="DejaVuSans-74" d="M 1172 4494 
L 1172 3500 
L 2356 3500 
L 2356 3053 
L 1172 3053 
L 1172 1153 
Q 1172 725 1289 603 
Q 1406 481 1766 481 
L 2356 481 
L 2356 0 
L 1766 0 
Q 1100 0 847 248 
Q 594 497 594 1153 
L 594 3053 
L 172 3053 
L 172 3500 
L 594 3500 
L 594 4494 
L 1172 4494 
z
" transform="scale(0.015625)"/>
       <path id="DejaVuSans-76" d="M 191 3500 
L 800 3500 
L 1894 563 
L 2988 3500 
L 3597 3500 
L 2284 0 
L 1503 0 
L 191 3500 
z
" transform="scale(0.015625)"/>
       <path id="DejaVuSans-79" d="M 2059 -325 
Q 1816 -950 1584 -1140 
Q 1353 -1331 966 -1331 
L 506 -1331 
L 506 -850 
L 844 -850 
Q 1081 -850 1212 -737 
Q 1344 -625 1503 -206 
L 1606 56 
L 191 3500 
L 800 3500 
L 1894 763 
L 2988 3500 
L 3597 3500 
L 2059 -325 
z
" transform="scale(0.015625)"/>
       <path id="DejaVuSans-45" d="M 628 4666 
L 3578 4666 
L 3578 4134 
L 1259 4134 
L 1259 2753 
L 3481 2753 
L 3481 2222 
L 1259 2222 
L 1259 531 
L 3634 531 
L 3634 0 
L 628 0 
L 628 4666 
z
" transform="scale(0.015625)"/>
       <path id="DejaVuSans-4d" d="M 628 4666 
L 1569 4666 
L 2759 1491 
L 3956 4666 
L 4897 4666 
L 4897 0 
L 4281 0 
L 4281 4097 
L 3078 897 
L 2444 897 
L 1241 4097 
L 1241 0 
L 628 0 
L 628 4666 
z
" transform="scale(0.015625)"/>
       <path id="DejaVuSans-41" d="M 2188 4044 
L 1331 1722 
L 3047 1722 
L 2188 4044 
z
M 1831 4666 
L 2547 4666 
L 4325 0 
L 3669 0 
L 3244 1197 
L 1141 1197 
L 716 0 
L 50 0 
L 1831 4666 
z
" transform="scale(0.015625)"/>
      </defs>
      <use xlink:href="#DejaVuSans-50"/>
      <use xlink:href="#DejaVuSans-72" transform="translate(58.552734 0)"/>
      <use xlink:href="#DejaVuSans-6f" transform="translate(97.416016 0)"/>
      <use xlink:href="#DejaVuSans-64" transform="translate(158.597656 0)"/>
      <use xlink:href="#DejaVuSans-75" transform="translate(222.074219 0)"/>
      <use xlink:href="#DejaVuSans-63" transform="translate(285.453125 0)"/>
      <use xlink:href="#DejaVuSans-74" transform="translate(340.433594 0)"/>
      <use xlink:href="#DejaVuSans-69" transform="translate(379.642578 0)"/>
      <use xlink:href="#DejaVuSans-76" transform="translate(407.425781 0)"/>
      <use xlink:href="#DejaVuSans-69" transform="translate(466.605469 0)"/>
      <use xlink:href="#DejaVuSans-74" transform="translate(494.388672 0)"/>
      <use xlink:href="#DejaVuSans-79" transform="translate(533.597656 0)"/>
      <use xlink:href="#DejaVuSans-20" transform="translate(592.777344 0)"/>
      <use xlink:href="#DejaVuSans-45" transform="translate(624.564453 0)"/>
      <use xlink:href="#DejaVuSans-4d" transform="translate(687.748047 0)"/>
      <use xlink:href="#DejaVuSans-41" transform="translate(774.027344 0)"/>
     </g>
    </g>
   </g>
   <g id="line2d_18">
    <path d="M 81.06 373.532727 
L 134.323271 373.532727 
L 134.762013 330.351996 
L 135.025259 313.478789 
L 151.872949 313.478789 
L 151.960697 308.93962 
L 152.048446 265.313069 
L 152.136194 265.590599 
L 152.574936 266.613409 
L 182.760382 266.613409 
L 183.286872 267.304703 
L 183.550117 267.45359 
L 188.464027 267.517278 
L 189.078266 267.815475 
L 217.15775 267.815475 
L 217.245498 249.390127 
L 217.333246 251.259867 
L 217.771988 258.15171 
L 217.947485 259.145418 
L 245.237234 259.145418 
L 245.324982 260.039586 
L 245.412731 242.391574 
L 245.500479 244.961042 
L 245.851473 252.9145 
L 246.026969 235.979291 
L 250.151144 235.979291 
L 250.589886 249.128203 
L 250.677634 208.846348 
L 250.765382 214.770634 
L 250.940879 220.102323 
L 255.76704 220.102323 
L 255.854789 224.900885 
L 255.942537 189.677828 
L 256.030286 197.518671 
L 256.469028 226.417597 
L 256.907769 243.48229 
L 256.995518 245.94294 
L 257.083266 216.523963 
L 257.171015 221.680192 
L 263.488899 221.680192 
L 263.576647 186.779374 
L 263.664395 194.910399 
L 263.752144 162.686602 
L 264.190886 205.850041 
L 271.912744 205.850041 
L 272.351486 231.337209 
L 272.790228 246.387072 
L 273.22897 255.274344 
L 273.404466 256.555704 
L 277.528641 256.555704 
L 277.967383 261.278346 
L 278.055131 261.959517 
L 278.142879 230.939051 
L 278.230628 234.654067 
L 283.846525 234.654067 
L 284.022021 241.006457 
L 284.10977 212.081381 
L 284.197518 217.682164 
L 284.548512 235.016795 
L 296.482292 235.016795 
L 296.921034 248.559647 
L 297.18428 253.851689 
L 298.588254 253.851689 
L 299.026996 259.681919 
L 299.290241 261.959939 
L 310.522034 261.959939 
L 310.873028 264.067561 
L 310.960776 246.016751 
L 311.048525 248.223913 
L 311.31177 251.998399 
L 314.733957 251.998399 
L 314.909454 255.055442 
L 314.997202 224.725426 
L 315.084951 229.061719 
L 315.172699 232.964426 
L 315.260447 196.935353 
L 315.348196 204.050739 
L 315.523693 210.454586 
L 318.243893 210.454586 
L 318.682635 234.055564 
L 318.94588 243.278572 
L 321.051841 243.278572 
L 321.490583 253.438347 
L 321.753828 257.408116 
L 322.455815 257.408116 
L 322.806809 261.080955 
L 322.982306 202.308798 
L 323.245551 214.806907 
L 327.369725 214.806907 
L 327.808467 236.625876 
L 328.071712 245.152107 
L 334.389596 245.152107 
L 334.74059 253.039767 
L 334.828338 236.091906 
L 334.916086 239.29151 
L 335.179331 244.763229 
L 337.197544 244.763229 
L 337.636286 254.314801 
L 337.899532 258.047531 
L 338.601519 258.047531 
L 338.689267 259.051783 
L 338.777015 228.321922 
L 338.864764 232.29844 
L 338.952512 235.877221 
L 339.040261 199.5567 
L 339.128009 206.40974 
L 339.391254 218.128404 
L 347.025364 218.128404 
L 347.464106 238.587563 
L 347.551854 201.995839 
L 347.639603 208.605091 
L 347.815099 214.553419 
L 349.131325 214.553419 
L 349.570067 236.476567 
L 349.833312 245.043289 
L 351.939274 245.043289 
L 352.378016 254.480559 
L 352.465764 255.841213 
L 352.729009 187.520437 
L 358.257158 187.520437 
L 358.695899 220.513978 
L 358.959145 233.406449 
L 363.873054 233.406449 
L 364.311796 247.608539 
L 364.399545 249.656691 
L 364.487293 219.866549 
L 364.575041 224.688731 
L 372.2969 224.688731 
L 372.735642 242.461589 
L 372.998887 249.406155 
L 389.846577 249.406155 
L 390.109822 254.468749 
L 390.197571 216.289033 
L 390.285319 221.468882 
L 390.373068 194.497479 
L 390.636313 208.479824 
L 395.462474 208.479824 
L 395.637971 219.805392 
L 395.725719 185.091842 
L 395.813468 193.391579 
L 396.164461 219.079934 
L 404.588306 219.079934 
L 404.763803 228.391515 
L 404.851552 213.908521 
L 405.290293 236.095702 
L 413.714139 236.095702 
L 414.152881 249.197375 
L 414.240629 211.54488 
L 414.328377 217.199229 
L 414.503874 222.287974 
L 416.522087 222.287974 
L 416.609836 184.69031 
L 416.697584 193.030116 
L 416.960829 213.370755 
L 417.048577 176.664729 
L 417.136326 185.807177 
L 417.311823 194.035211 
L 418.628048 194.035211 
L 419.06679 224.360166 
L 419.154539 228.733155 
L 419.242287 190.491015 
L 419.330036 198.250877 
L 426.349907 198.250877 
L 426.788649 226.85034 
L 427.051894 238.025756 
L 435.475739 238.025756 
L 435.651236 243.737888 
L 435.738984 227.720045 
L 435.826732 231.756877 
L 436.177726 244.251191 
L 443.899584 244.251191 
L 444.162829 250.711134 
L 444.250578 220.815549 
L 444.338326 225.54283 
L 444.601571 237.072539 
L 453.025417 237.072539 
L 453.113165 221.721527 
L 453.551907 240.709104 
L 453.990649 251.920792 
L 454.429391 258.541433 
L 461.449262 258.541433 
L 461.888004 262.450466 
L 462.0635 263.521781 
L 462.238997 224.43693 
L 471.979068 224.43693 
L 472.41781 242.31228 
L 472.681055 249.297336 
L 476.190991 249.297336 
L 476.278739 219.543046 
L 476.366488 224.397704 
L 476.454236 228.766897 
L 476.541984 201.06582 
L 476.629733 207.767863 
L 476.892978 224.11427 
L 478.998939 224.11427 
L 479.349933 239.236679 
L 479.437681 223.669295 
L 479.700926 235.706401 
L 496.548617 235.706401 
L 496.987359 248.967084 
L 497.250604 254.14862 
L 498.654578 254.14862 
L 498.830075 256.796961 
L 498.917823 239.473296 
L 499.005572 242.334634 
L 499.356565 251.191117 
L 511.992333 251.191117 
L 512.431075 258.110798 
L 512.518824 259.108723 
L 512.606572 241.553924 
L 512.69432 244.207326 
L 539.36983 244.207326 
L 539.457579 228.142666 
L 539.545327 232.137321 
L 539.984069 246.859462 
L 540.159566 248.982268 
L 544.28374 248.982268 
L 544.722482 256.80624 
L 544.985727 259.863705 
L 549.899637 259.863705 
L 550.338379 263.231598 
L 550.601624 264.547543 
L 554.813547 264.547543 
L 555.252288 265.997614 
L 555.340037 234.573507 
L 555.427785 237.924951 
L 555.603282 240.941081 
L 583.595018 240.941081 
L 584.03376 252.05787 
L 584.297005 256.402177 
L 586.402966 256.402177 
L 586.578463 258.622836 
L 586.666211 220.027668 
L 586.75396 224.833822 
L 587.104953 239.709069 
L 597.63476 239.709069 
L 598.073502 251.330725 
L 598.248999 254.514723 
L 598.424495 216.330367 
L 625.714244 216.330367 
L 625.889741 226.164108 
L 625.977489 211.903813 
L 626.416231 234.912194 
L 643.263922 234.912194 
L 643.527167 243.902803 
L 643.614915 227.868511 
L 643.702664 231.890581 
L 643.965909 241.700281 
L 652.389754 241.700281 
L 652.828496 252.506641 
L 653.091741 256.729055 
L 668.535457 256.729055 
L 668.974199 261.380838 
L 669.237444 263.198277 
L 692.403019 263.198277 
L 692.841761 265.200455 
L 692.929509 265.489372 
L 693.017258 247.296424 
L 693.105006 249.375787 
L 698.018916 249.375787 
L 698.282161 254.447239 
L 698.457658 196.935775 
L 698.633154 210.455007 
L 698.808651 184.584866 
L 701.528851 184.584866 
L 701.967593 218.780472 
L 702.055341 192.078164 
L 702.494083 223.204918 
L 702.581832 227.693052 
L 702.757329 200.307885 
L 703.020574 213.186016 
L 709.952696 213.186016 
L 710.391438 235.668863 
L 710.83018 248.94473 
L 711.268922 256.784308 
L 711.444419 218.373035 
L 712.760645 218.373035 
L 713.02389 231.845872 
L 713.111638 217.017443 
L 713.462632 234.580677 
L 714.866606 234.580677 
L 715.305348 248.301941 
L 715.568593 253.663998 
L 722.588464 253.663998 
L 723.027206 259.570991 
L 723.290451 261.878957 
L 723.3782 220.322069 
L 723.465948 225.098699 
L 723.90469 242.703268 
L 724.080187 245.241946 
L 742.94609 245.241946 
L 743.033839 229.073951 
L 743.121587 232.975392 
L 743.384832 242.490692 
L 743.648077 142.269621 
L 747.86 142.269621 
L 747.86 142.269621 
" clip-path="url(#pdc85b3ac65)" style="fill: none; stroke: #1f77b4; stroke-width: 2; stroke-linecap: square"/>
   </g>
   <g id="line2d_19">
    <path d="M 81.06 373.532727 
L 89.396097 373.532727 
L 89.834839 330.351996 
L 90.098084 313.478789 
L 102.733852 313.478789 
L 103.172594 294.891057 
L 103.435839 287.627627 
L 154.680897 287.627627 
L 155.119639 279.626509 
L 155.382885 276.499451 
L 158.190833 276.499451 
L 158.629575 273.055216 
L 158.89282 271.708903 
L 164.508717 271.708903 
L 164.85971 270.463816 
L 164.947459 238.593046 
L 165.035207 241.542536 
L 165.298452 246.586151 
L 184.866343 246.586151 
L 185.305085 255.391177 
L 185.56833 258.832037 
L 186.972304 258.832037 
L 187.060053 228.12453 
L 187.147801 232.120871 
L 187.323298 238.954931 
L 187.411046 210.23484 
L 187.498795 216.020361 
L 187.76204 225.913151 
L 191.184227 225.913151 
L 191.271975 211.67774 
L 191.710717 234.778069 
L 191.973962 241.107262 
L 202.416021 241.107262 
L 202.854762 252.156144 
L 202.942511 253.749197 
L 203.030259 236.730477 
L 203.118008 239.866392 
L 209.435892 239.866392 
L 209.874634 251.423516 
L 210.137879 255.939487 
L 224.879608 255.939487 
L 225.31835 260.914352 
L 225.581595 262.858746 
L 229.09153 262.858746 
L 229.179279 244.928987 
L 229.267027 247.244967 
L 229.705769 255.780477 
L 230.144511 260.820718 
L 230.407756 262.790419 
L 230.583253 223.778535 
L 234.707427 223.778535 
L 234.795176 228.209307 
L 234.882924 190.019468 
L 234.970672 197.826147 
L 235.409414 226.599383 
L 235.497163 199.115099 
L 235.584911 206.012425 
L 236.023653 231.432952 
L 236.19915 203.465311 
L 238.91935 203.465311 
L 239.358092 229.928894 
L 239.621337 240.270033 
L 241.025311 240.270033 
L 241.464053 251.661399 
L 241.727298 256.11326 
L 245.939221 256.11326 
L 246.377963 261.017266 
L 246.641208 262.933401 
L 257.171015 262.933401 
L 257.609757 265.044397 
L 257.96075 265.869394 
L 266.998834 265.869394 
L 267.525324 266.909075 
L 267.613073 267.027173 
L 267.78857 227.591825 
L 270.50877 227.591825 
L 270.596518 213.188547 
L 270.684266 218.678402 
L 270.772015 191.986216 
L 271.03526 212.609868 
L 271.123008 175.979762 
L 271.210757 185.190538 
L 274.018705 185.190538 
L 274.106453 175.027389 
L 274.545195 213.13709 
L 274.808441 223.577769 
L 276.124666 223.577769 
L 276.563408 241.805303 
L 276.651157 244.433399 
L 276.738905 204.620982 
L 276.826654 210.967889 
L 279.634602 210.967889 
L 279.810099 221.820644 
L 279.897847 186.905907 
L 279.985595 195.024279 
L 280.336589 220.150827 
L 281.740563 220.150827 
L 281.828312 224.94475 
L 281.91606 210.806348 
L 282.354802 234.263923 
L 282.530299 237.646156 
L 288.760434 237.646156 
L 289.199176 250.112632 
L 289.286925 251.910247 
L 289.374673 235.075422 
L 289.462421 238.376674 
L 295.078318 238.376674 
L 295.51706 250.543689 
L 295.692557 253.877417 
L 295.868054 215.75675 
L 299.290241 215.75675 
L 299.377989 220.989743 
L 299.465738 194.066423 
L 299.90448 224.379146 
L 300.079976 228.750026 
L 324.561777 228.750026 
L 324.91277 242.278538 
L 325.000518 213.226085 
L 325.088267 218.712144 
L 325.351512 228.09374 
L 333.687609 228.09374 
L 334.126351 244.47178 
L 334.389596 250.87141 
L 335.79357 250.87141 
L 336.144564 256.792321 
L 336.232312 218.380206 
L 336.320061 223.350853 
L 336.758802 241.671178 
L 337.109796 250.755843 
L 337.285293 210.311181 
L 349.833312 210.311181 
L 349.921061 176.547053 
L 350.096557 193.93989 
L 350.184306 161.813101 
L 350.535299 198.361383 
L 354.747222 198.361383 
L 354.83497 186.881444 
L 355.273712 220.136065 
L 355.536957 229.24688 
L 370.190938 229.24688 
L 370.62968 245.152529 
L 370.892925 251.368263 
L 375.104848 251.368263 
L 375.192596 253.040189 
L 375.280345 215.003455 
L 375.368093 220.311946 
L 375.806835 239.876937 
L 378.614784 239.876937 
L 379.053525 251.429843 
L 379.141274 213.554228 
L 379.229022 219.00781 
L 379.404519 223.916035 
L 380.018758 223.916035 
L 380.369751 239.107193 
L 380.4575 202.46359 
L 380.545248 209.026025 
L 380.720745 220.247836 
L 380.896242 181.096766 
L 380.98399 189.795926 
L 381.071738 197.624959 
L 381.159487 162.493428 
L 381.334984 182.556538 
L 381.51048 172.656999 
L 385.634655 172.656999 
L 385.810151 190.78879 
L 385.8979 158.97707 
L 386.073396 179.707853 
L 386.161145 149.004142 
L 386.42439 171.629971 
L 391.952538 171.629971 
L 392.215784 197.770051 
L 392.303532 165.260288 
L 392.654526 200.622953 
L 397.568435 200.622953 
L 397.743932 213.441192 
L 397.83168 200.452977 
L 397.919429 207.2166 
L 398.007177 173.762056 
L 398.270422 199.324722 
L 411.608177 199.324722 
L 411.871423 217.959693 
L 411.959171 183.430883 
L 412.046919 191.8968 
L 412.134668 181.063024 
L 412.397913 197.597965 
L 415.118113 197.597965 
L 415.556855 226.464414 
L 415.995597 243.510128 
L 416.434339 253.575003 
L 416.609836 255.026339 
L 417.926061 255.026339 
L 418.01381 256.332584 
L 418.101558 225.874769 
L 418.189306 230.095918 
L 418.628048 245.654444 
L 421.435997 245.654444 
L 421.874739 254.841179 
L 421.962487 237.713219 
L 422.050236 240.75086 
L 422.225732 243.484399 
L 427.753881 243.484399 
L 427.929378 248.158959 
L 428.017126 207.974112 
L 428.104874 213.985706 
L 428.280371 224.265266 
L 428.368119 197.014225 
L 428.455868 204.121597 
L 429.859842 204.121597 
L 430.035339 216.275114 
L 430.123087 189.82292 
L 430.561829 221.872945 
L 434.071765 221.872945 
L 434.510507 240.798521 
L 434.773752 248.193966 
L 444.601571 248.193966 
L 445.040313 256.34102 
L 445.303558 259.524596 
L 448.111507 259.524596 
L 448.550249 263.031253 
L 448.637997 263.536965 
L 448.725745 224.450427 
L 448.813494 228.814136 
L 456.535352 228.814136 
L 456.974094 244.896932 
L 457.061842 228.763101 
L 457.149591 232.695754 
L 457.325088 239.420152 
L 457.412836 223.83421 
L 457.851578 241.956721 
L 458.027075 244.570055 
L 473.383043 244.570055 
L 473.646288 250.943534 
L 473.734036 234.205295 
L 473.821784 237.593434 
L 474.260526 250.08142 
L 474.699268 257.454934 
L 474.874765 258.518235 
L 480.402914 258.518235 
L 480.841655 262.437391 
L 481.104901 263.968865 
L 486.01881 263.968865 
L 486.282056 265.08531 
L 486.545301 219.319082 
L 486.984043 239.290244 
L 487.422785 251.083564 
L 500.058552 251.083564 
L 500.497294 258.047109 
L 500.76054 260.768417 
L 503.568488 260.768417 
L 504.00723 263.76599 
L 504.445972 265.535768 
L 504.972462 266.731507 
L 515.502269 266.731507 
L 516.028759 267.367126 
L 516.292004 267.504203 
L 535.859895 267.504203 
L 536.035391 208.830321 
L 536.12314 214.756294 
L 536.474133 233.097286 
L 536.64963 218.143588 
L 545.687714 218.143588 
L 546.038708 235.319631 
L 546.126456 199.054785 
L 546.214205 205.958016 
L 546.47745 217.762723 
L 547.793675 217.762723 
L 547.881424 222.795372 
L 547.969172 208.872077 
L 548.144669 220.123412 
L 548.232417 193.286556 
L 548.495663 213.557602 
L 556.217521 213.557602 
L 556.305269 179.469127 
L 556.393018 188.331093 
L 556.831759 220.992695 
L 557.007256 225.702262 
L 566.747327 225.702262 
L 567.186069 243.059248 
L 567.273818 213.928766 
L 567.361566 219.344811 
L 567.537063 224.219293 
L 594.124824 224.219293 
L 594.563566 242.184059 
L 594.826811 249.204123 
L 600.442708 249.204123 
L 600.618205 252.792184 
L 600.705953 235.869208 
L 600.793702 239.091165 
L 601.144695 249.06325 
L 614.48245 249.06325 
L 614.921192 256.854323 
L 615.184437 259.898291 
L 629.926167 259.898291 
L 630.189412 262.118105 
L 630.27716 244.262579 
L 630.364909 246.6452 
L 630.452657 248.789516 
L 630.540405 232.266806 
L 630.628154 235.848962 
L 644.667896 235.848962 
L 645.106638 249.051018 
L 645.369883 254.2102 
L 661.515586 254.2102 
L 661.86658 258.982612 
L 661.954328 228.259921 
L 662.042077 232.242765 
L 662.305322 239.053627 
L 663.621548 239.053627 
L 663.709296 241.957143 
L 663.797044 205.028419 
L 663.884793 211.334413 
L 663.972541 217.009851 
L 664.06029 203.664812 
L 664.499031 230.04657 
L 664.762277 240.355654 
L 664.850025 224.676078 
L 665.11327 232.924357 
L 671.343406 232.924357 
L 671.606651 242.453575 
L 671.694399 213.38383 
L 671.782148 218.854283 
L 672.045393 232.196791 
L 673.449367 232.196791 
L 673.888109 246.894892 
L 674.151354 252.638235 
L 676.257315 252.638235 
L 676.696057 258.964897 
L 676.959303 261.437356 
L 694.50898 261.437356 
L 694.947722 264.161195 
L 695.298716 265.22534 
L 700.124877 265.22534 
L 700.651367 266.567014 
L 700.914612 266.856353 
L 702.932825 266.856353 
L 703.459316 267.433766 
L 703.810309 267.558191 
L 708.022232 267.658996 
L 708.10998 267.702017 
L 708.197729 228.199185 
L 708.285477 232.187934 
L 708.373225 235.778104 
L 708.460974 207.37561 
L 708.548722 213.446675 
L 719.780516 213.446675 
L 720.219258 235.823234 
L 720.482503 244.567102 
L 728.204361 244.567102 
L 728.643103 254.199234 
L 728.906348 257.963176 
L 732.416284 257.963176 
L 732.767277 261.44537 
L 732.855026 243.656906 
L 732.942774 246.099841 
L 733.206019 250.277547 
L 735.224232 250.277547 
L 735.311981 252.058713 
L 735.399729 235.208704 
L 735.487477 238.496459 
L 735.838471 248.673106 
L 735.926219 218.981238 
L 736.013968 223.891993 
L 736.189464 232.289582 
L 736.364961 163.962479 
L 736.628206 192.180656 
L 739.436155 192.180656 
L 739.787148 218.285306 
L 739.874897 204.81289 
L 740.138142 221.960674 
L 740.22589 208.120891 
L 740.313639 171.939978 
L 740.401387 181.554817 
L 740.489135 150.666367 
L 740.840129 191.047762 
L 741.542116 191.047762 
L 741.980858 222.596715 
L 742.156355 231.2402 
L 742.331852 195.383212 
L 747.86 195.383212 
L 747.86 195.383212 
" clip-path="url(#pdc85b3ac65)" style="fill: none; stroke: #ff7f0e; stroke-width: 2; stroke-linecap: square"/>
   </g>
   <g id="line2d_20">
    <path d="M 81.06 373.532727 
L 101.329878 373.532727 
L 101.417626 362.988291 
L 101.593123 306.997335 
L 101.76862 299.60442 
L 101.856368 264.81959 
L 101.944116 265.146467 
L 102.119613 265.440446 
L 112.561671 265.440446 
L 112.737168 207.158395 
L 112.824916 213.251392 
L 113.263658 235.707245 
L 123.091478 235.707245 
L 123.179226 238.94523 
L 123.266975 223.406949 
L 123.442471 231.896486 
L 123.53022 217.062995 
L 123.617968 222.165658 
L 123.705717 208.305208 
L 123.881213 214.283481 
L 127.3034 214.283481 
L 127.742142 236.317557 
L 128.180884 249.327704 
L 128.619626 257.01038 
L 128.795123 258.117968 
L 139.237181 258.117968 
L 139.32493 216.937305 
L 139.412678 222.0522 
L 139.500426 226.655901 
L 139.588175 212.346257 
L 139.939168 231.515621 
L 144.151091 231.515621 
L 144.326588 238.464404 
L 144.414336 201.885333 
L 144.502084 208.505552 
L 144.853078 228.995922 
L 153.276923 228.995922 
L 153.715665 245.004485 
L 153.97891 251.260288 
L 155.382885 251.260288 
L 155.558381 254.457783 
L 155.64613 224.187659 
L 155.733878 228.577941 
L 156.084872 242.165923 
L 161.700769 242.165923 
L 161.788517 244.758167 
L 161.876265 204.913273 
L 161.964014 211.230656 
L 162.402756 234.514037 
L 166.614678 234.514037 
L 166.877923 243.61262 
L 167.05342 168.125423 
L 167.492162 209.061033 
L 167.843156 229.360338 
L 167.930904 201.59979 
L 168.018652 208.248689 
L 170.826601 208.248689 
L 170.914349 172.055123 
L 171.002098 181.658574 
L 171.265343 205.081141 
L 171.353091 169.203908 
L 171.616336 187.991984 
L 175.740511 187.991984 
L 175.916007 203.210136 
L 176.091504 135.399289 
L 176.179253 148.668407 
L 176.267001 128.977305 
L 176.530246 155.408411 
L 193.290188 155.408411 
L 193.377937 166.676195 
L 193.465685 145.184104 
L 193.904427 195.514807 
L 194.25542 90.254339 
L 194.430917 124.042931 
L 194.518666 96.269729 
L 194.606414 113.451677 
L 194.781911 89.373668 
L 196.800124 89.373668 
L 196.887872 88.792459 
L 196.97562 67.180582 
L 197.063369 87.271529 
L 197.151117 65.811493 
L 197.238866 86.039095 
L 197.414362 60.524934 
L 197.589859 81.281446 
L 201.012046 81.281446 
L 201.450788 157.780487 
L 201.714033 187.673964 
L 212.945827 187.673964 
L 213.209072 209.466361 
L 213.296821 175.78701 
L 213.472317 193.324094 
L 213.735563 132.400029 
L 217.859737 132.400029 
L 218.298479 187.965412 
L 218.386227 153.800173 
L 218.473976 165.229077 
L 218.649472 133.337219 
L 226.283582 133.337219 
L 226.722324 188.518784 
L 226.810072 178.022852 
L 227.073318 195.135207 
L 231.197492 195.135207 
L 231.636234 225.010125 
L 231.81173 233.195138 
L 231.987227 197.142867 
L 237.515376 197.142867 
L 237.866369 221.541006 
L 237.954118 184.017997 
L 238.041866 192.424865 
L 238.129614 199.991131 
L 238.305111 164.622983 
L 243.131273 164.622983 
L 243.570014 206.99348 
L 243.83326 223.550354 
L 260.68095 223.550354 
L 260.768699 228.004323 
L 260.856447 189.835151 
L 260.944195 197.660388 
L 261.20744 216.74624 
L 261.470686 148.735891 
L 283.144537 148.735891 
L 283.232286 142.218586 
L 283.320034 154.805691 
L 283.407783 147.681026 
L 283.671028 180.311417 
L 283.758776 170.636264 
L 283.934273 138.203687 
L 286.654473 138.203687 
L 286.742221 151.192323 
L 286.82997 131.248577 
L 287.180963 178.307552 
L 287.268712 155.652198 
L 287.619705 194.319067 
L 287.707454 170.062646 
L 287.970699 196.627455 
L 288.146196 164.231995 
L 332.283635 164.231995 
L 332.371383 135.076207 
L 332.810125 189.545812 
L 332.897873 157.858516 
L 333.07337 168.88167 
L 343.515428 168.88167 
L 343.603177 139.260661 
L 343.690925 152.143431 
L 343.866422 106.161676 
L 343.95417 122.354134 
L 344.041919 118.474625 
L 344.305164 146.90116 
L 358.959145 146.90116 
L 359.310138 188.576989 
L 359.397887 178.075153 
L 359.573383 117.675778 
L 359.74888 132.717206 
L 389.14459 132.717206 
L 389.232338 106.712517 
L 389.320087 122.850144 
L 389.583332 55.05195 
L 389.846577 112.784425 
L 392.654526 112.784425 
L 393.093268 176.38256 
L 393.356513 201.234952 
L 396.164461 201.234952 
L 396.603203 228.611683 
L 396.866448 239.310068 
L 405.992281 239.310068 
L 406.167777 244.777991 
L 406.431023 193.839085 
L 406.694268 213.9604 
L 409.502216 213.9604 
L 409.765461 228.628976 
L 409.85321 190.396959 
L 409.940958 198.1661 
L 410.028706 205.158326 
L 410.116455 169.273501 
L 410.291952 179.154903 
L 419.330036 179.154903 
L 419.505532 196.052151 
L 419.593281 171.622379 
L 420.032023 211.126055 
L 442.49561 211.126055 
L 442.671107 146.819757 
L 442.758855 158.946702 
L 442.846604 130.319401 
L 442.934352 144.09634 
L 443.0221 116.953695 
L 443.285345 145.669148 
L 448.813494 145.669148 
L 448.901242 126.277929 
L 449.076739 153.221916 
L 449.164487 133.075295 
L 449.252236 146.576391 
L 449.427733 109.560358 
L 449.603229 125.413286 
L 488.826759 125.413286 
L 489.265501 183.840007 
L 489.528746 206.671242 
L 497.250604 206.671242 
L 497.601598 91.808589 
L 497.689346 109.436356 
L 497.777094 106.848751 
L 498.04034 62.355448 
L 506.376436 62.355448 
L 506.464185 43.387273 
L 506.902927 135.404772 
L 506.990675 148.673047 
L 507.166172 121.072774 
L 516.906243 121.072774 
L 516.993991 93.596504 
L 517.257236 140.883661 
L 517.432733 84.914637 
L 517.783727 147.908364 
L 517.871475 120.384855 
L 517.959224 135.155079 
L 518.046972 106.270494 
L 518.310217 150.123117 
L 528.138037 150.123117 
L 528.225785 161.919811 
L 528.313533 154.08403 
L 528.48903 175.744832 
L 528.576779 145.437592 
L 528.840024 178.675764 
L 554.111559 178.675764 
L 554.199308 145.439279 
L 554.63805 195.665381 
L 554.901295 209.42587 
L 608.866553 209.42587 
L 609.04205 220.571761 
L 609.217547 154.470799 
L 609.568541 193.544262 
L 621.502321 193.544262 
L 621.765567 106.587671 
L 622.204308 172.723219 
L 632.032128 172.723219 
L 632.295373 198.566788 
L 632.383121 187.066182 
L 632.734115 214.930066 
L 666.429496 214.930066 
L 666.78049 233.211166 
L 666.955986 159.699996 
L 667.219231 180.293702 
L 674.151354 180.293702 
L 674.502348 210.485797 
L 674.590096 176.704376 
L 674.853341 201.469461 
L 705.038787 201.469461 
L 705.214283 214.127002 
L 705.302032 201.070459 
L 705.38978 207.772081 
L 705.477529 195.351157 
L 705.565277 202.624709 
L 705.653025 190.718353 
L 705.828522 198.455439 
L 747.86 198.455439 
L 747.86 198.455439 
" clip-path="url(#pdc85b3ac65)" style="fill: none; stroke: #2ca02c; stroke-width: 2; stroke-linecap: square"/>
   </g>
   <g id="line2d_21">
    <path d="M 81.06 373.532727 
L 104.839813 373.532727 
L 105.278555 330.351996 
L 105.5418 313.478789 
L 114.667633 313.478789 
L 115.106375 294.891057 
L 115.36962 287.627627 
L 116.071607 287.627627 
L 116.4226 280.908291 
L 116.510349 247.9932 
L 116.598097 250.002548 
L 116.861342 253.438769 
L 130.111349 253.438769 
L 130.550091 259.43771 
L 130.813336 261.781949 
L 137.833207 261.781949 
L 138.271949 264.364492 
L 138.622942 265.373805 
L 140.641155 265.373805 
L 141.079897 266.485189 
L 141.167646 227.103829 
L 141.255394 231.20224 
L 141.430891 234.890684 
L 146.257052 234.890684 
L 146.695794 248.485415 
L 146.959039 253.798123 
L 165.912691 253.798123 
L 166.351433 259.649864 
L 166.52693 261.253461 
L 166.702427 230.303432 
L 222.071659 230.303432 
L 222.510401 245.77676 
L 222.773647 251.823361 
L 268.402808 251.823361 
L 268.84155 258.484071 
L 269.017047 260.30868 
L 269.192544 218.909115 
L 285.952486 218.909115 
L 286.127983 228.253172 
L 286.215731 192.695224 
L 286.303479 200.234496 
L 286.654473 223.569755 
L 382.826706 223.569755 
L 383.265448 241.800664 
L 383.440945 246.795352 
L 383.616442 206.74674 
L 507.078423 206.74674 
L 507.517165 231.86654 
L 507.780411 241.682566 
L 527.436049 241.682566 
L 527.699295 248.838864 
L 527.787043 208.586111 
L 527.874791 214.536126 
L 528.138037 229.048644 
L 633.436102 229.048644 
L 633.699347 239.628088 
L 633.787096 202.932607 
L 633.874844 209.448225 
L 634.138089 225.339534 
L 747.86 225.339534 
L 747.86 225.339534 
" clip-path="url(#pdc85b3ac65)" style="fill: none; stroke: #d62728; stroke-width: 2; stroke-linecap: square"/>
   </g>
   <g id="line2d_22">
    <path d="M 81.06 373.532727 
L 87.992123 373.532727 
L 88.430865 330.351996 
L 88.69411 313.478789 
L 95.011994 313.478789 
L 95.450736 294.891057 
L 95.713981 287.627627 
L 133.621284 287.627627 
L 134.060026 279.626509 
L 134.323271 276.499451 
L 151.170962 276.499451 
L 151.25871 257.205663 
L 151.346459 258.293849 
L 151.785201 262.304953 
L 151.960697 262.88321 
L 162.402756 262.88321 
L 162.841498 265.015295 
L 163.016994 265.599456 
L 163.192491 247.395542 
L 171.528588 247.395542 
L 171.616336 249.464782 
L 171.704085 209.149184 
L 171.791833 215.043102 
L 172.230575 236.765485 
L 294.376331 236.765485 
L 294.815073 249.592159 
L 294.902821 211.900017 
L 294.99057 217.518936 
L 295.166067 222.576048 
L 304.204151 222.576048 
L 304.642892 241.21355 
L 304.906138 248.496803 
L 340.005493 248.496803 
L 340.093241 210.914323 
L 340.18099 216.631516 
L 340.619732 237.703518 
L 340.795228 240.742002 
L 344.217415 240.742002 
L 344.305164 243.476807 
L 344.392912 206.396243 
L 344.480661 212.565582 
L 344.919403 235.30276 
L 377.210809 235.30276 
L 377.649551 248.72878 
L 377.912796 253.97527 
L 446.707533 253.97527 
L 447.146275 259.754043 
L 447.40952 262.012661 
L 505.674449 262.012661 
L 506.113191 264.500726 
L 506.464185 265.472923 
L 531.647972 265.472923 
L 531.73572 247.281662 
L 531.823469 249.36229 
L 531.911217 251.234982 
L 531.998966 234.467641 
L 532.086714 237.829629 
L 532.174462 222.402697 
L 532.437708 231.083299 
L 538.667843 231.083299 
L 538.755592 234.783974 
L 538.84334 219.661565 
L 538.931088 224.504414 
L 539.018837 210.409877 
L 539.36983 230.245649 
L 569.555276 230.245649 
L 569.643024 215.577073 
L 570.081766 237.080552 
L 570.345011 242.97194 
L 572.363224 242.97194 
L 572.801966 253.257405 
L 573.240708 259.330578 
L 573.67945 262.916952 
L 573.854947 263.434051 
L 581.489056 263.434051 
L 581.927798 265.339641 
L 582.278792 266.0845 
L 601.846682 266.0845 
L 602.373173 267.023377 
L 602.636418 267.225408 
L 606.848341 267.311873 
L 607.462579 267.717201 
L 642.123193 267.817584 
L 642.210941 249.391814 
L 642.298689 251.261554 
L 642.561934 255.82139 
L 647.475844 255.82139 
L 647.563593 257.047919 
L 647.826838 226.640717 
L 648.177831 240.894686 
L 698.720903 240.894686 
L 699.071896 250.246335 
L 699.159645 233.577691 
L 699.247393 237.028674 
L 699.510638 242.930184 
L 747.86 242.930184 
L 747.86 242.930184 
" clip-path="url(#pdc85b3ac65)" style="fill: none; stroke: #9467bd; stroke-width: 2; stroke-linecap: square"/>
   </g>
   <g id="line2d_23">
    <path d="M 81.06 373.532727 
L 88.69411 373.532727 
L 88.957355 344.957305 
L 89.132852 301.882018 
L 89.396097 292.723964 
L 107.647762 292.723964 
L 107.911007 286.047649 
L 108.086503 226.486346 
L 108.174252 230.646337 
L 108.437497 237.760036 
L 113.263658 237.760036 
L 113.7024 250.179695 
L 113.965645 255.032666 
L 126.601413 255.032666 
L 127.040155 260.379117 
L 127.3034 262.468181 
L 132.919297 262.468181 
L 133.358039 264.768977 
L 133.709033 265.668206 
L 157.488846 265.668206 
L 157.576594 265.910306 
L 157.664343 226.586308 
L 157.752091 230.736598 
L 158.190833 246.032357 
L 160.296794 246.032357 
L 160.735536 255.064299 
L 160.998781 258.593733 
L 200.310059 258.593733 
L 200.748801 262.481677 
L 200.83655 244.589456 
L 200.924298 246.939178 
L 201.099795 249.053971 
L 206.627943 249.053971 
L 207.066685 256.84884 
L 207.32993 259.894495 
L 212.24384 259.894495 
L 212.682582 263.250156 
L 212.945827 264.56104 
L 218.561724 264.56104 
L 219.000466 266.005628 
L 219.351459 266.569966 
L 231.899479 266.569966 
L 232.425969 267.281505 
L 232.689214 267.43461 
L 250.940879 267.499986 
L 251.555118 267.806618 
L 282.793544 267.903627 
L 283.583279 267.966893 
L 360.977358 268.077399 
L 369.225706 268.086256 
L 432.843287 268.086256 
L 432.931036 236.452948 
L 433.018784 239.616278 
L 433.369778 249.407842 
L 471.277081 249.407842 
L 471.715823 257.057619 
L 471.979068 260.046756 
L 541.475792 260.046756 
L 541.914533 263.339995 
L 542.177779 264.626838 
L 559.025469 264.626838 
L 559.464211 266.044432 
L 559.815205 266.598225 
L 575.171173 266.598225 
L 575.697663 267.296689 
L 576.311902 267.710031 
L 576.750644 267.812944 
L 651.336773 267.907844 
L 652.126509 267.969846 
L 667.394728 268.001901 
L 667.482477 236.377449 
L 667.570225 239.548372 
L 667.83347 247.282927 
L 674.853341 247.282927 
L 675.292083 255.802832 
L 675.555328 259.132343 
L 684.681161 259.132343 
L 685.119903 262.799698 
L 685.383148 264.232897 
L 689.59507 264.232897 
L 690.033812 265.81161 
L 690.384806 266.428671 
L 730.310322 266.428671 
L 730.749064 267.108154 
L 730.836813 248.753243 
L 730.924561 250.686671 
L 731.100058 252.426925 
L 733.820258 252.426925 
L 734.259 258.840473 
L 734.522245 261.346674 
L 736.628206 261.346674 
L 736.803703 262.627612 
L 736.891452 231.540506 
L 736.9792 235.195207 
L 737.330193 246.507278 
L 747.86 246.507278 
L 747.86 246.507278 
" clip-path="url(#pdc85b3ac65)" style="fill: none; stroke: #8c564b; stroke-width: 2; stroke-linecap: square"/>
   </g>
   <g id="line2d_24">
    <path d="M 81.06 373.532727 
L 144.853078 373.532727 
L 145.29182 330.351996 
L 145.379568 324.125717 
L 145.555065 296.871302 
L 146.959039 296.871302 
L 147.397781 285.084309 
L 147.661026 280.478078 
L 152.574936 280.478078 
L 153.013678 275.404517 
L 153.276923 273.421741 
L 165.210704 273.421741 
L 165.649446 271.237355 
L 166.00044 270.383678 
L 215.051788 270.383678 
L 215.139537 270.154231 
L 215.227285 230.405924 
L 215.315034 234.174084 
L 215.666027 245.837496 
L 215.841524 229.61003 
L 223.475634 229.61003 
L 223.914376 245.367214 
L 224.089872 249.684106 
L 224.177621 211.982685 
L 224.265369 217.593169 
L 224.528614 231.277316 
L 224.616363 195.416954 
L 224.704111 202.68418 
L 224.967356 215.111009 
L 232.601466 215.111009 
L 232.689214 220.408533 
L 232.776963 193.543419 
L 232.95246 207.707127 
L 233.127956 151.16786 
L 233.215705 162.859953 
L 233.391201 173.382878 
L 243.83326 173.382878 
L 244.272002 212.165737 
L 244.535247 227.321044 
L 252.959092 227.321044 
L 253.397834 244.015839 
L 253.661079 250.539471 
L 285.250499 250.539471 
L 285.601492 256.574684 
L 285.689241 239.273373 
L 285.776989 242.154957 
L 286.040234 247.082583 
L 318.94588 247.082583 
L 319.384622 255.684734 
L 319.560118 258.041626 
L 319.735615 227.412991 
L 339.303506 227.412991 
L 339.742248 244.069405 
L 340.005493 250.578696 
L 346.323377 250.578696 
L 346.762119 257.748913 
L 347.025364 260.55078 
L 352.641261 260.55078 
L 353.080003 263.637348 
L 353.430996 264.843631 
L 384.23068 264.843631 
L 384.669422 266.17223 
L 385.020416 266.691438 
L 401.078371 266.691438 
L 401.604861 267.346037 
L 401.868106 267.48691 
L 439.77541 267.547225 
L 440.214152 267.768658 
L 440.3019 236.167404 
L 440.389649 239.359416 
L 441.793623 239.359416 
L 442.232365 251.124054 
L 442.49561 255.721428 
L 449.515481 255.721428 
L 449.866475 259.97421 
L 449.954223 229.152402 
L 450.041971 233.045829 
L 450.305216 239.703586 
L 459.3433 239.703586 
L 459.782042 251.327351 
L 460.045288 255.869472 
L 464.959197 255.869472 
L 465.397939 260.87344 
L 465.661184 262.8288 
L 465.748933 223.813121 
L 465.836681 228.240519 
L 466.275423 244.558667 
L 466.45092 246.911763 
L 467.065159 246.911763 
L 467.240655 250.93552 
L 467.328404 221.01758 
L 467.416152 225.724616 
L 467.767146 240.293653 
L 474.787017 240.293653 
L 475.225759 251.676161 
L 475.489004 256.123804 
L 502.164514 256.123804 
L 502.603256 261.023593 
L 502.866501 262.938041 
L 512.69432 262.938041 
L 512.782069 263.453031 
L 512.869817 221.738819 
L 512.957565 226.373732 
L 513.045314 212.092347 
L 513.133062 217.691865 
L 513.220811 191.098375 
L 513.484056 205.72646 
L 518.310217 205.72646 
L 518.397966 211.96244 
L 518.485714 178.033397 
L 518.573462 187.038767 
L 518.748959 202.438283 
L 518.836707 190.550486 
L 519.099953 205.28275 
L 533.051946 205.28275 
L 533.139695 211.563438 
L 533.227443 185.582791 
L 533.666185 219.369274 
L 533.841682 224.241225 
L 542.177779 224.241225 
L 542.616521 242.197135 
L 542.879766 249.213824 
L 543.581753 249.213824 
L 543.75725 185.578995 
L 544.195992 219.367165 
L 544.371488 224.239116 
L 548.495663 224.239116 
L 548.583411 196.990606 
L 548.671159 204.100508 
L 549.109901 230.304276 
L 549.285398 234.082558 
L 580.085082 234.082558 
L 580.348327 243.297974 
L 580.436076 214.143873 
L 580.523824 219.538406 
L 580.787069 232.695754 
L 653.091741 232.695754 
L 653.267238 239.420152 
L 653.354986 200.109228 
L 653.442735 206.907015 
L 653.793728 227.947383 
L 677.66129 227.947383 
L 678.100032 244.385316 
L 678.363277 250.808987 
L 707.144748 250.808987 
L 707.58349 257.885147 
L 707.758987 259.823636 
L 707.934483 221.108684 
L 721.18449 221.108684 
L 721.447735 233.840036 
L 721.535484 195.087124 
L 721.623232 202.387248 
L 722.061974 229.292432 
L 722.500716 245.179523 
L 722.676213 247.470196 
L 747.86 247.470196 
L 747.86 247.470196 
" clip-path="url(#pdc85b3ac65)" style="fill: none; stroke: #e377c2; stroke-width: 2; stroke-linecap: square"/>
   </g>
   <g id="line2d_25">
    <path d="M 81.06 373.532727 
L 92.906032 373.532727 
L 93.344774 330.351996 
L 93.608019 313.478789 
L 97.117955 313.478789 
L 97.468949 297.869227 
L 97.556697 255.349421 
L 97.644445 256.623189 
L 97.90769 258.801247 
L 106.945774 258.801247 
L 107.384516 262.604836 
L 107.472265 223.611511 
L 107.560013 228.059154 
L 107.73551 232.062244 
L 108.349749 232.062244 
L 108.788491 246.815176 
L 109.051736 252.58003 
L 120.985517 252.58003 
L 121.073265 214.58927 
L 121.161013 219.939095 
L 121.599755 239.656769 
L 121.775252 242.499971 
L 135.025259 242.499971 
L 135.464001 252.97861 
L 135.551749 212.311672 
L 135.639497 217.889257 
L 135.814994 222.909252 
L 138.535194 222.909252 
L 138.798439 235.152608 
L 138.886188 196.268523 
L 138.973936 203.450549 
L 139.237181 220.967388 
L 143.449104 220.967388 
L 143.536852 186.13785 
L 143.624601 194.332986 
L 143.712349 201.708608 
L 143.800097 189.893778 
L 144.151091 216.784622 
L 145.555065 216.784622 
L 145.81831 230.688093 
L 145.906059 215.975231 
L 146.257052 233.896976 
L 172.230575 233.896976 
L 172.669317 247.898722 
L 172.844814 251.734788 
L 173.020311 234.917256 
L 175.038523 234.917256 
L 175.477265 248.50102 
L 175.740511 253.809511 
L 182.058395 253.809511 
L 182.497136 259.656612 
L 182.760382 261.941381 
L 185.56833 261.941381 
L 186.007072 264.458127 
L 186.358066 265.442133 
L 198.906085 265.442133 
L 199.16933 266.159155 
L 199.257079 247.899144 
L 199.344827 249.918193 
L 199.520324 253.370441 
L 199.695821 215.300387 
L 207.32993 215.300387 
L 207.505427 225.330254 
L 207.593175 211.153471 
L 208.031917 234.468906 
L 215.753775 234.468906 
L 216.017021 243.579721 
L 216.104769 203.852925 
L 216.192517 210.276595 
L 216.280266 176.516263 
L 216.543511 193.915005 
L 221.369672 193.915005 
L 221.545169 139.996241 
L 221.632917 152.805622 
L 221.720666 132.700756 
L 221.808414 146.239391 
L 222.071659 93.533659 
L 228.389543 93.533659 
L 228.652789 124.2302 
L 229.09153 183.141543 
L 238.217363 183.141543 
L 238.39286 164.221029 
L 238.568356 183.955574 
L 238.656105 173.916005 
L 238.743853 183.33303 
L 238.831602 173.355885 
L 239.007098 182.829006 
L 242.429285 182.829006 
L 242.604782 199.028213 
L 242.780279 177.089459 
L 242.868027 186.189307 
L 242.955776 154.837746 
L 243.219021 176.355566 
L 244.535247 176.355566 
L 244.973989 213.921174 
L 245.237234 228.600717 
L 269.806782 228.600717 
L 269.982279 236.103294 
L 270.070028 207.668324 
L 270.157776 213.710286 
L 270.50877 232.411054 
L 278.932615 232.411054 
L 279.020363 217.526106 
L 279.459105 238.231583 
L 279.72235 243.90449 
L 288.058447 243.90449 
L 288.497189 253.807824 
L 288.760434 257.678054 
L 341.409467 257.678054 
L 341.848209 261.940537 
L 342.111454 263.60698 
L 353.343248 263.60698 
L 353.78199 265.442133 
L 354.132983 266.159155 
L 423.541958 266.159155 
L 423.629707 226.810271 
L 423.717455 230.938207 
L 424.156197 246.151298 
L 424.331694 248.344963 
L 450.217468 248.344963 
L 450.65621 256.430015 
L 450.919455 259.589549 
L 470.575094 259.589549 
L 471.013836 263.069635 
L 471.277081 264.429867 
L 483.210862 264.429867 
L 483.649604 265.928021 
L 483.737352 226.602335 
L 483.825101 230.750938 
L 484.000597 234.484512 
L 502.866501 234.484512 
L 503.305243 248.245001 
L 503.568488 253.622664 
L 523.224127 253.622664 
L 523.662869 259.546528 
L 523.926114 261.861243 
L 526.734062 261.861243 
L 526.997308 263.548774 
L 527.085056 232.369298 
L 527.172804 235.941331 
L 527.436049 244.653566 
L 528.840024 244.653566 
L 529.278766 254.249847 
L 529.542011 258.000292 
L 532.349959 258.000292 
L 532.788701 262.131602 
L 533.051946 263.745744 
L 553.409572 263.745744 
L 553.848314 265.52438 
L 554.199308 266.219047 
L 565.343353 266.219047 
L 565.606598 266.725602 
L 565.782095 206.881287 
L 565.957592 218.510535 
L 566.133089 191.834798 
L 570.257263 191.834798 
L 570.520508 212.499363 
L 570.608256 175.880645 
L 570.696005 185.101543 
L 570.783753 193.400014 
L 570.871502 158.691105 
L 571.046998 169.630746 
L 592.72085 169.630746 
L 593.071844 203.489775 
L 593.159592 191.496955 
L 593.24734 199.156011 
L 593.335089 187.596357 
L 593.773831 220.558686 
L 593.949328 229.589363 
L 594.124824 180.491516 
L 608.164566 180.491516 
L 608.603308 216.362844 
L 608.866553 230.380618 
L 629.224179 230.380618 
L 629.311928 234.151308 
L 629.399676 219.092166 
L 629.838418 239.156541 
L 630.013915 242.049512 
L 639.753986 242.049512 
L 639.841734 205.111931 
L 639.929483 211.40949 
L 640.368225 234.619903 
L 640.543722 237.966707 
L 641.15796 237.966707 
L 641.245709 240.979041 
L 641.333457 225.237042 
L 641.772199 242.785092 
L 641.947696 245.315335 
L 653.793728 245.315335 
L 653.881477 247.592512 
L 654.144722 196.022627 
L 654.407967 215.55261 
L 654.583464 202.353506 
L 690.999045 202.353506 
L 691.086793 208.926908 
L 691.174541 183.209871 
L 691.613283 217.968129 
L 691.78878 222.98011 
L 695.210967 222.98011 
L 695.298716 227.49102 
L 695.386464 199.91732 
L 695.474212 206.734508 
L 695.737458 223.361397 
L 695.825206 196.200617 
L 695.912954 203.389392 
L 716.972567 203.389392 
L 717.411309 229.884186 
L 717.674555 240.237557 
L 719.078529 240.237557 
L 719.517271 251.642841 
L 719.780516 256.099341 
L 744.350064 256.099341 
L 744.61331 259.347871 
L 744.701058 241.76903 
L 744.788806 244.400922 
L 745.052052 250.819953 
L 747.86 250.819953 
L 747.86 250.819953 
" clip-path="url(#pdc85b3ac65)" style="fill: none; stroke: #7f7f7f; stroke-width: 2; stroke-linecap: square"/>
   </g>
   <g id="patch_3">
    <path d="M 47.72 390.04 
L 47.72 26.88 
" style="fill: none; stroke: #000000; stroke-width: 0.8; stroke-linejoin: miter; stroke-linecap: square"/>
   </g>
   <g id="patch_4">
    <path d="M 781.2 390.04 
L 781.2 26.88 
" style="fill: none; stroke: #000000; stroke-width: 0.8; stroke-linejoin: miter; stroke-linecap: square"/>
   </g>
   <g id="patch_5">
    <path d="M 47.72 390.04 
L 781.2 390.04 
" style="fill: none; stroke: #000000; stroke-width: 0.8; stroke-linejoin: miter; stroke-linecap: square"/>
   </g>
   <g id="patch_6">
    <path d="M 47.72 26.88 
L 781.2 26.88 
" style="fill: none; stroke: #000000; stroke-width: 0.8; stroke-linejoin: miter; stroke-linecap: square"/>
   </g>
   <g id="text_20">
    <!-- Top reward-aware families during training -->
    <g transform="translate(289.429375 20.88) scale(0.12 -0.12)">
     <defs>
      <path id="DejaVuSans-77" d="M 269 3500 
L 844 3500 
L 1563 769 
L 2278 3500 
L 2956 3500 
L 3675 769 
L 4391 3500 
L 4966 3500 
L 4050 0 
L 3372 0 
L 2619 2869 
L 1863 0 
L 1184 0 
L 269 3500 
z
" transform="scale(0.015625)"/>
      <path id="DejaVuSans-2d" d="M 313 2009 
L 1997 2009 
L 1997 1497 
L 313 1497 
L 313 2009 
z
" transform="scale(0.015625)"/>
      <path id="DejaVuSans-66" d="M 2375 4863 
L 2375 4384 
L 1825 4384 
Q 1516 4384 1395 4259 
Q 1275 4134 1275 3809 
L 1275 3500 
L 2222 3500 
L 2222 3053 
L 1275 3053 
L 1275 0 
L 697 0 
L 697 3053 
L 147 3053 
L 147 3500 
L 697 3500 
L 697 3744 
Q 697 4328 969 4595 
Q 1241 4863 1831 4863 
L 2375 4863 
z
" transform="scale(0.015625)"/>
      <path id="DejaVuSans-6d" d="M 3328 2828 
Q 3544 3216 3844 3400 
Q 4144 3584 4550 3584 
Q 5097 3584 5394 3201 
Q 5691 2819 5691 2113 
L 5691 0 
L 5113 0 
L 5113 2094 
Q 5113 2597 4934 2840 
Q 4756 3084 4391 3084 
Q 3944 3084 3684 2787 
Q 3425 2491 3425 1978 
L 3425 0 
L 2847 0 
L 2847 2094 
Q 2847 2600 2669 2842 
Q 2491 3084 2119 3084 
Q 1678 3084 1418 2786 
Q 1159 2488 1159 1978 
L 1159 0 
L 581 0 
L 581 3500 
L 1159 3500 
L 1159 2956 
Q 1356 3278 1631 3431 
Q 1906 3584 2284 3584 
Q 2666 3584 2933 3390 
Q 3200 3197 3328 2828 
z
" transform="scale(0.015625)"/>
      <path id="DejaVuSans-6c" d="M 603 4863 
L 1178 4863 
L 1178 0 
L 603 0 
L 603 4863 
z
" transform="scale(0.015625)"/>
     </defs>
     <use xlink:href="#DejaVuSans-54"/>
     <use xlink:href="#DejaVuSans-6f" transform="translate(44.083984 0)"/>
     <use xlink:href="#DejaVuSans-70" transform="translate(105.265625 0)"/>
     <use xlink:href="#DejaVuSans-20" transform="translate(168.742188 0)"/>
     <use xlink:href="#DejaVuSans-72" transform="translate(200.529297 0)"/>
     <use xlink:href="#DejaVuSans-65" transform="translate(239.392578 0)"/>
     <use xlink:href="#DejaVuSans-77" transform="translate(300.916016 0)"/>
     <use xlink:href="#DejaVuSans-61" transform="translate(382.703125 0)"/>
     <use xlink:href="#DejaVuSans-72" transform="translate(443.982422 0)"/>
     <use xlink:href="#DejaVuSans-64" transform="translate(483.345703 0)"/>
     <use xlink:href="#DejaVuSans-2d" transform="translate(546.822266 0)"/>
     <use xlink:href="#DejaVuSans-61" transform="translate(582.90625 0)"/>
     <use xlink:href="#DejaVuSans-77" transform="translate(644.185547 0)"/>
     <use xlink:href="#DejaVuSans-61" transform="translate(725.972656 0)"/>
     <use xlink:href="#DejaVuSans-72" transform="translate(787.251953 0)"/>
     <use xlink:href="#DejaVuSans-65" transform="translate(826.115234 0)"/>
     <use xlink:href="#DejaVuSans-20" transform="translate(887.638672 0)"/>
     <use xlink:href="#DejaVuSans-66" transform="translate(919.425781 0)"/>
     <use xlink:href="#DejaVuSans-61" transform="translate(954.630859 0)"/>
     <use xlink:href="#DejaVuSans-6d" transform="translate(1015.910156 0)"/>
     <use xlink:href="#DejaVuSans-69" transform="translate(1113.322266 0)"/>
     <use xlink:href="#DejaVuSans-6c" transform="translate(1141.105469 0)"/>
     <use xlink:href="#DejaVuSans-69" transform="translate(1168.888672 0)"/>
     <use xlink:href="#DejaVuSans-65" transform="translate(1196.671875 0)"/>
     <use xlink:href="#DejaVuSans-73" transform="translate(1258.195312 0)"/>
     <use xlink:href="#DejaVuSans-20" transform="translate(1310.294922 0)"/>
     <use xlink:href="#DejaVuSans-64" transform="translate(1342.082031 0)"/>
     <use xlink:href="#DejaVuSans-75" transform="translate(1405.558594 0)"/>
     <use xlink:href="#DejaVuSans-72" transform="translate(1468.9375 0)"/>
     <use xlink:href="#DejaVuSans-69" transform="translate(1510.050781 0)"/>
     <use xlink:href="#DejaVuSans-6e" transform="translate(1537.833984 0)"/>
     <use xlink:href="#DejaVuSans-67" transform="translate(1601.212891 0)"/>
     <use xlink:href="#DejaVuSans-20" transform="translate(1664.689453 0)"/>
     <use xlink:href="#DejaVuSans-74" transform="translate(1696.476562 0)"/>
     <use xlink:href="#DejaVuSans-72" transform="translate(1735.685547 0)"/>
     <use xlink:href="#DejaVuSans-61" transform="translate(1776.798828 0)"/>
     <use xlink:href="#DejaVuSans-69" transform="translate(1838.078125 0)"/>
     <use xlink:href="#DejaVuSans-6e" transform="translate(1865.861328 0)"/>
     <use xlink:href="#DejaVuSans-69" transform="translate(1929.240234 0)"/>
     <use xlink:href="#DejaVuSans-6e" transform="translate(1957.023438 0)"/>
     <use xlink:href="#DejaVuSans-67" transform="translate(2020.402344 0)"/>
    </g>
   </g>
   <g id="legend_1">
    <g id="patch_7">
     <path d="M 53.32 129 
L 174.57 129 
Q 176.17 129 176.17 127.4 
L 176.17 32.48 
Q 176.17 30.88 174.57 30.88 
L 53.32 30.88 
Q 51.72 30.88 51.72 32.48 
L 51.72 127.4 
Q 51.72 129 53.32 129 
z
" style="fill: #ffffff; opacity: 0.8; stroke: #cccccc; stroke-linejoin: miter"/>
    </g>
    <g id="line2d_26">
     <path d="M 54.92 37.35875 
L 62.92 37.35875 
L 70.92 37.35875 
" style="fill: none; stroke: #1f77b4; stroke-width: 2; stroke-linecap: square"/>
    </g>
    <g id="text_21">
     <!-- smallest_most_frequent -->
     <g transform="translate(77.32 40.15875) scale(0.08 -0.08)">
      <defs>
       <path id="DejaVuSans-5f" d="M 3263 -1063 
L 3263 -1509 
L -63 -1509 
L -63 -1063 
L 3263 -1063 
z
" transform="scale(0.015625)"/>
       <path id="DejaVuSans-71" d="M 947 1747 
Q 947 1113 1208 752 
Q 1469 391 1925 391 
Q 2381 391 2643 752 
Q 2906 1113 2906 1747 
Q 2906 2381 2643 2742 
Q 2381 3103 1925 3103 
Q 1469 3103 1208 2742 
Q 947 2381 947 1747 
z
M 2906 525 
Q 2725 213 2448 61 
Q 2172 -91 1784 -91 
Q 1150 -91 751 415 
Q 353 922 353 1747 
Q 353 2572 751 3078 
Q 1150 3584 1784 3584 
Q 2172 3584 2448 3432 
Q 2725 3281 2906 2969 
L 2906 3500 
L 3481 3500 
L 3481 -1331 
L 2906 -1331 
L 2906 525 
z
" transform="scale(0.015625)"/>
      </defs>
      <use xlink:href="#DejaVuSans-73"/>
      <use xlink:href="#DejaVuSans-6d" transform="translate(52.099609 0)"/>
      <use xlink:href="#DejaVuSans-61" transform="translate(149.511719 0)"/>
      <use xlink:href="#DejaVuSans-6c" transform="translate(210.791016 0)"/>
      <use xlink:href="#DejaVuSans-6c" transform="translate(238.574219 0)"/>
      <use xlink:href="#DejaVuSans-65" transform="translate(266.357422 0)"/>
      <use xlink:href="#DejaVuSans-73" transform="translate(327.880859 0)"/>
      <use xlink:href="#DejaVuSans-74" transform="translate(379.980469 0)"/>
      <use xlink:href="#DejaVuSans-5f" transform="translate(419.189453 0)"/>
      <use xlink:href="#DejaVuSans-6d" transform="translate(469.189453 0)"/>
      <use xlink:href="#DejaVuSans-6f" transform="translate(566.601562 0)"/>
      <use xlink:href="#DejaVuSans-73" transform="translate(627.783203 0)"/>
      <use xlink:href="#DejaVuSans-74" transform="translate(679.882812 0)"/>
      <use xlink:href="#DejaVuSans-5f" transform="translate(719.091797 0)"/>
      <use xlink:href="#DejaVuSans-66" transform="translate(769.091797 0)"/>
      <use xlink:href="#DejaVuSans-72" transform="translate(804.296875 0)"/>
      <use xlink:href="#DejaVuSans-65" transform="translate(843.160156 0)"/>
      <use xlink:href="#DejaVuSans-71" transform="translate(904.683594 0)"/>
      <use xlink:href="#DejaVuSans-75" transform="translate(968.160156 0)"/>
      <use xlink:href="#DejaVuSans-65" transform="translate(1031.539062 0)"/>
      <use xlink:href="#DejaVuSans-6e" transform="translate(1093.0625 0)"/>
      <use xlink:href="#DejaVuSans-74" transform="translate(1156.441406 0)"/>
     </g>
    </g>
    <g id="line2d_27">
     <path d="M 54.92 49.32375 
L 62.92 49.32375 
L 70.92 49.32375 
" style="fill: none; stroke: #ff7f0e; stroke-width: 2; stroke-linecap: square"/>
    </g>
    <g id="text_22">
     <!-- merge_intervals -->
     <g transform="translate(77.32 52.12375) scale(0.08 -0.08)">
      <use xlink:href="#DejaVuSans-6d"/>
      <use xlink:href="#DejaVuSans-65" transform="translate(97.412109 0)"/>
      <use xlink:href="#DejaVuSans-72" transform="translate(158.935547 0)"/>
      <use xlink:href="#DejaVuSans-67" transform="translate(198.298828 0)"/>
      <use xlink:href="#DejaVuSans-65" transform="translate(261.775391 0)"/>
      <use xlink:href="#DejaVuSans-5f" transform="translate(323.298828 0)"/>
      <use xlink:href="#DejaVuSans-69" transform="translate(373.298828 0)"/>
      <use xlink:href="#DejaVuSans-6e" transform="translate(401.082031 0)"/>
      <use xlink:href="#DejaVuSans-74" transform="translate(464.460938 0)"/>
      <use xlink:href="#DejaVuSans-65" transform="translate(503.669922 0)"/>
      <use xlink:href="#DejaVuSans-72" transform="translate(565.193359 0)"/>
      <use xlink:href="#DejaVuSans-76" transform="translate(606.306641 0)"/>
      <use xlink:href="#DejaVuSans-61" transform="translate(665.486328 0)"/>
      <use xlink:href="#DejaVuSans-6c" transform="translate(726.765625 0)"/>
      <use xlink:href="#DejaVuSans-73" transform="translate(754.548828 0)"/>
     </g>
    </g>
    <g id="line2d_28">
     <path d="M 54.92 61.28875 
L 62.92 61.28875 
L 70.92 61.28875 
" style="fill: none; stroke: #2ca02c; stroke-width: 2; stroke-linecap: square"/>
    </g>
    <g id="text_23">
     <!-- matrix_diagonal_sum -->
     <g transform="translate(77.32 64.08875) scale(0.08 -0.08)">
      <defs>
       <path id="DejaVuSans-78" d="M 3513 3500 
L 2247 1797 
L 3578 0 
L 2900 0 
L 1881 1375 
L 863 0 
L 184 0 
L 1544 1831 
L 300 3500 
L 978 3500 
L 1906 2253 
L 2834 3500 
L 3513 3500 
z
" transform="scale(0.015625)"/>
      </defs>
      <use xlink:href="#DejaVuSans-6d"/>
      <use xlink:href="#DejaVuSans-61" transform="translate(97.412109 0)"/>
      <use xlink:href="#DejaVuSans-74" transform="translate(158.691406 0)"/>
      <use xlink:href="#DejaVuSans-72" transform="translate(197.900391 0)"/>
      <use xlink:href="#DejaVuSans-69" transform="translate(239.013672 0)"/>
      <use xlink:href="#DejaVuSans-78" transform="translate(266.796875 0)"/>
      <use xlink:href="#DejaVuSans-5f" transform="translate(325.976562 0)"/>
      <use xlink:href="#DejaVuSans-64" transform="translate(375.976562 0)"/>
      <use xlink:href="#DejaVuSans-69" transform="translate(439.453125 0)"/>
      <use xlink:href="#DejaVuSans-61" transform="translate(467.236328 0)"/>
      <use xlink:href="#DejaVuSans-67" transform="translate(528.515625 0)"/>
      <use xlink:href="#DejaVuSans-6f" transform="translate(591.992188 0)"/>
      <use xlink:href="#DejaVuSans-6e" transform="translate(653.173828 0)"/>
      <use xlink:href="#DejaVuSans-61" transform="translate(716.552734 0)"/>
      <use xlink:href="#DejaVuSans-6c" transform="translate(777.832031 0)"/>
      <use xlink:href="#DejaVuSans-5f" transform="translate(805.615234 0)"/>
      <use xlink:href="#DejaVuSans-73" transform="translate(855.615234 0)"/>
      <use xlink:href="#DejaVuSans-75" transform="translate(907.714844 0)"/>
      <use xlink:href="#DejaVuSans-6d" transform="translate(971.09375 0)"/>
     </g>
    </g>
    <g id="line2d_29">
     <path d="M 54.92 73.25375 
L 62.92 73.25375 
L 70.92 73.25375 
" style="fill: none; stroke: #d62728; stroke-width: 2; stroke-linecap: square"/>
    </g>
    <g id="text_24">
     <!-- fizzbuzz_variant -->
     <g transform="translate(77.32 76.05375) scale(0.08 -0.08)">
      <defs>
       <path id="DejaVuSans-7a" d="M 353 3500 
L 3084 3500 
L 3084 2975 
L 922 459 
L 3084 459 
L 3084 0 
L 275 0 
L 275 525 
L 2438 3041 
L 353 3041 
L 353 3500 
z
" transform="scale(0.015625)"/>
       <path id="DejaVuSans-62" d="M 3116 1747 
Q 3116 2381 2855 2742 
Q 2594 3103 2138 3103 
Q 1681 3103 1420 2742 
Q 1159 2381 1159 1747 
Q 1159 1113 1420 752 
Q 1681 391 2138 391 
Q 2594 391 2855 752 
Q 3116 1113 3116 1747 
z
M 1159 2969 
Q 1341 3281 1617 3432 
Q 1894 3584 2278 3584 
Q 2916 3584 3314 3078 
Q 3713 2572 3713 1747 
Q 3713 922 3314 415 
Q 2916 -91 2278 -91 
Q 1894 -91 1617 61 
Q 1341 213 1159 525 
L 1159 0 
L 581 0 
L 581 4863 
L 1159 4863 
L 1159 2969 
z
" transform="scale(0.015625)"/>
      </defs>
      <use xlink:href="#DejaVuSans-66"/>
      <use xlink:href="#DejaVuSans-69" transform="translate(35.205078 0)"/>
      <use xlink:href="#DejaVuSans-7a" transform="translate(62.988281 0)"/>
      <use xlink:href="#DejaVuSans-7a" transform="translate(115.478516 0)"/>
      <use xlink:href="#DejaVuSans-62" transform="translate(167.96875 0)"/>
      <use xlink:href="#DejaVuSans-75" transform="translate(231.445312 0)"/>
      <use xlink:href="#DejaVuSans-7a" transform="translate(294.824219 0)"/>
      <use xlink:href="#DejaVuSans-7a" transform="translate(347.314453 0)"/>
      <use xlink:href="#DejaVuSans-5f" transform="translate(399.804688 0)"/>
      <use xlink:href="#DejaVuSans-76" transform="translate(449.804688 0)"/>
      <use xlink:href="#DejaVuSans-61" transform="translate(508.984375 0)"/>
      <use xlink:href="#DejaVuSans-72" transform="translate(570.263672 0)"/>
      <use xlink:href="#DejaVuSans-69" transform="translate(611.376953 0)"/>
      <use xlink:href="#DejaVuSans-61" transform="translate(639.160156 0)"/>
      <use xlink:href="#DejaVuSans-6e" transform="translate(700.439453 0)"/>
      <use xlink:href="#DejaVuSans-74" transform="translate(763.818359 0)"/>
     </g>
    </g>
    <g id="line2d_30">
     <path d="M 54.92 85.21875 
L 62.92 85.21875 
L 70.92 85.21875 
" style="fill: none; stroke: #9467bd; stroke-width: 2; stroke-linecap: square"/>
    </g>
    <g id="text_25">
     <!-- group_anagrams_count -->
     <g transform="translate(77.32 88.01875) scale(0.08 -0.08)">
      <use xlink:href="#DejaVuSans-67"/>
      <use xlink:href="#DejaVuSans-72" transform="translate(63.476562 0)"/>
      <use xlink:href="#DejaVuSans-6f" transform="translate(102.339844 0)"/>
      <use xlink:href="#DejaVuSans-75" transform="translate(163.521484 0)"/>
      <use xlink:href="#DejaVuSans-70" transform="translate(226.900391 0)"/>
      <use xlink:href="#DejaVuSans-5f" transform="translate(290.376953 0)"/>
      <use xlink:href="#DejaVuSans-61" transform="translate(340.376953 0)"/>
      <use xlink:href="#DejaVuSans-6e" transform="translate(401.65625 0)"/>
      <use xlink:href="#DejaVuSans-61" transform="translate(465.035156 0)"/>
      <use xlink:href="#DejaVuSans-67" transform="translate(526.314453 0)"/>
      <use xlink:href="#DejaVuSans-72" transform="translate(589.791016 0)"/>
      <use xlink:href="#DejaVuSans-61" transform="translate(630.904297 0)"/>
      <use xlink:href="#DejaVuSans-6d" transform="translate(692.183594 0)"/>
      <use xlink:href="#DejaVuSans-73" transform="translate(789.595703 0)"/>
      <use xlink:href="#DejaVuSans-5f" transform="translate(841.695312 0)"/>
      <use xlink:href="#DejaVuSans-63" transform="translate(891.695312 0)"/>
      <use xlink:href="#DejaVuSans-6f" transform="translate(946.675781 0)"/>
      <use xlink:href="#DejaVuSans-75" transform="translate(1007.857422 0)"/>
      <use xlink:href="#DejaVuSans-6e" transform="translate(1071.236328 0)"/>
      <use xlink:href="#DejaVuSans-74" transform="translate(1134.615234 0)"/>
     </g>
    </g>
    <g id="line2d_31">
     <path d="M 54.92 97.18375 
L 62.92 97.18375 
L 70.92 97.18375 
" style="fill: none; stroke: #8c564b; stroke-width: 2; stroke-linecap: square"/>
    </g>
    <g id="text_26">
     <!-- max_subarray_sum -->
     <g transform="translate(77.32 99.98375) scale(0.08 -0.08)">
      <use xlink:href="#DejaVuSans-6d"/>
      <use xlink:href="#DejaVuSans-61" transform="translate(97.412109 0)"/>
      <use xlink:href="#DejaVuSans-78" transform="translate(158.691406 0)"/>
      <use xlink:href="#DejaVuSans-5f" transform="translate(217.871094 0)"/>
      <use xlink:href="#DejaVuSans-73" transform="translate(267.871094 0)"/>
      <use xlink:href="#DejaVuSans-75" transform="translate(319.970703 0)"/>
      <use xlink:href="#DejaVuSans-62" transform="translate(383.349609 0)"/>
      <use xlink:href="#DejaVuSans-61" transform="translate(446.826172 0)"/>
      <use xlink:href="#DejaVuSans-72" transform="translate(508.105469 0)"/>
      <use xlink:href="#DejaVuSans-72" transform="translate(547.46875 0)"/>
      <use xlink:href="#DejaVuSans-61" transform="translate(588.582031 0)"/>
      <use xlink:href="#DejaVuSans-79" transform="translate(649.861328 0)"/>
      <use xlink:href="#DejaVuSans-5f" transform="translate(709.041016 0)"/>
      <use xlink:href="#DejaVuSans-73" transform="translate(759.041016 0)"/>
      <use xlink:href="#DejaVuSans-75" transform="translate(811.140625 0)"/>
      <use xlink:href="#DejaVuSans-6d" transform="translate(874.519531 0)"/>
     </g>
    </g>
    <g id="line2d_32">
     <path d="M 54.92 109.14875 
L 62.92 109.14875 
L 70.92 109.14875 
" style="fill: none; stroke: #e377c2; stroke-width: 2; stroke-linecap: square"/>
    </g>
    <g id="text_27">
     <!-- two_sum_count -->
     <g transform="translate(77.32 111.94875) scale(0.08 -0.08)">
      <use xlink:href="#DejaVuSans-74"/>
      <use xlink:href="#DejaVuSans-77" transform="translate(39.208984 0)"/>
      <use xlink:href="#DejaVuSans-6f" transform="translate(120.996094 0)"/>
      <use xlink:href="#DejaVuSans-5f" transform="translate(182.177734 0)"/>
      <use xlink:href="#DejaVuSans-73" transform="translate(232.177734 0)"/>
      <use xlink:href="#DejaVuSans-75" transform="translate(284.277344 0)"/>
      <use xlink:href="#DejaVuSans-6d" transform="translate(347.65625 0)"/>
      <use xlink:href="#DejaVuSans-5f" transform="translate(445.068359 0)"/>
      <use xlink:href="#DejaVuSans-63" transform="translate(495.068359 0)"/>
      <use xlink:href="#DejaVuSans-6f" transform="translate(550.048828 0)"/>
      <use xlink:href="#DejaVuSans-75" transform="translate(611.230469 0)"/>
      <use xlink:href="#DejaVuSans-6e" transform="translate(674.609375 0)"/>
      <use xlink:href="#DejaVuSans-74" transform="translate(737.988281 0)"/>
     </g>
    </g>
    <g id="line2d_33">
     <path d="M 54.92 121.11375 
L 62.92 121.11375 
L 70.92 121.11375 
" style="fill: none; stroke: #7f7f7f; stroke-width: 2; stroke-linecap: square"/>
    </g>
    <g id="text_28">
     <!-- balanced_brackets -->
     <g transform="translate(77.32 123.91375) scale(0.08 -0.08)">
      <defs>
       <path id="DejaVuSans-6b" d="M 581 4863 
L 1159 4863 
L 1159 1991 
L 2875 3500 
L 3609 3500 
L 1753 1863 
L 3688 0 
L 2938 0 
L 1159 1709 
L 1159 0 
L 581 0 
L 581 4863 
z
" transform="scale(0.015625)"/>
      </defs>
      <use xlink:href="#DejaVuSans-62"/>
      <use xlink:href="#DejaVuSans-61" transform="translate(63.476562 0)"/>
      <use xlink:href="#DejaVuSans-6c" transform="translate(124.755859 0)"/>
      <use xlink:href="#DejaVuSans-61" transform="translate(152.539062 0)"/>
      <use xlink:href="#DejaVuSans-6e" transform="translate(213.818359 0)"/>
      <use xlink:href="#DejaVuSans-63" transform="translate(277.197266 0)"/>
      <use xlink:href="#DejaVuSans-65" transform="translate(332.177734 0)"/>
      <use xlink:href="#DejaVuSans-64" transform="translate(393.701172 0)"/>
      <use xlink:href="#DejaVuSans-5f" transform="translate(457.177734 0)"/>
      <use xlink:href="#DejaVuSans-62" transform="translate(507.177734 0)"/>
      <use xlink:href="#DejaVuSans-72" transform="translate(570.654297 0)"/>
      <use xlink:href="#DejaVuSans-61" transform="translate(611.767578 0)"/>
      <use xlink:href="#DejaVuSans-63" transform="translate(673.046875 0)"/>
      <use xlink:href="#DejaVuSans-6b" transform="translate(728.027344 0)"/>
      <use xlink:href="#DejaVuSans-65" transform="translate(782.3125 0)"/>
      <use xlink:href="#DejaVuSans-74" transform="translate(843.835938 0)"/>
      <use xlink:href="#DejaVuSans-73" transform="translate(883.044922 0)"/>
     </g>
    </g>
   </g>
  </g>
 </g>
 <defs>
  <clipPath id="pdc85b3ac65">
   <rect x="47.72" y="26.88" width="733.48" height="363.16"/>
  </clipPath>
 </defs>
</svg>
